<svg width="379" height="435" viewBox="0 0 379 435" fill="none" xmlns="http://www.w3.org/2000/svg">
<rect width="379" height="435" fill="white"/>
<rect width="379" height="435" fill="#6989FF" fill-opacity="0.3"/>
<path d="M91.0513 149.131C83.8551 149.134 80.7638 161.199 73.7216 162.914C70.5763 163.68 67.3672 162.155 64.1537 162.089C60.9401 162.023 57.0963 164.725 57.7753 168.363L119.04 167.293C112.708 166.532 106.784 163.31 102.235 158.153C98.9149 154.329 95.7342 149.129 91.0513 149.131Z" fill="#F0F0F0"/>
<path d="M231.571 275.713C222.619 275.712 213.957 272.035 207.126 265.336C200.294 258.637 195.736 249.35 194.261 239.126L194.249 239.042L194.297 238.976C196.717 235.621 198.673 231.851 200.095 227.802C198.402 230.315 196.357 232.48 194.045 234.209L193.808 234.392L193.794 234.062C193.764 233.337 193.749 232.616 193.749 231.92C193.728 224.473 195.357 217.145 198.479 210.635C201.602 204.125 206.115 198.65 211.586 194.736C202.011 183.232 196.674 167.869 196.702 151.893C196.702 117.765 220.686 90.0001 250.166 90.0001C261.405 89.9817 272.363 94.0719 281.478 101.688C290.592 109.304 297.398 120.057 300.924 132.414L300.972 132.58L300.832 132.646C297.192 134.353 293.842 135.172 290.638 135.132C294.289 136.33 298.08 136.86 301.873 136.705L302.003 136.7L302.035 136.847C303.095 141.768 303.63 146.821 303.629 151.893C303.629 152.076 303.628 152.258 303.627 152.441C303.617 156.385 304.324 160.286 305.704 163.892C307.083 167.498 309.103 170.727 311.632 173.368C315.673 177.624 318.869 182.844 321.001 188.667C323.133 194.49 324.15 200.779 323.982 207.101C323.814 213.423 322.466 219.628 320.029 225.289C317.593 230.949 314.126 235.932 309.868 239.893L309.79 239.965L309.7 239.918C304.108 236.98 300.214 233.701 297.561 229.675C299.355 234.744 301.97 239.37 305.265 243.301L305.408 243.472L305.23 243.593C299.578 247.405 293.169 249.456 286.628 249.546C280.087 249.637 273.637 247.762 267.908 244.107C265.607 253.209 260.825 261.206 254.276 266.903C247.727 272.599 239.762 275.69 231.571 275.713Z" fill="#6C63FF"/>
<path d="M218.096 345.47C217.931 345.47 217.771 345.401 217.646 345.275C217.521 345.15 217.44 344.976 217.417 344.787C217.387 344.549 214.528 320.669 217.096 288.931C219.468 259.62 227.085 217.402 249.902 182.729C249.957 182.646 250.025 182.576 250.103 182.523C250.181 182.471 250.267 182.436 250.357 182.422C250.446 182.408 250.537 182.415 250.624 182.442C250.712 182.468 250.794 182.515 250.866 182.578C250.937 182.641 250.998 182.721 251.043 182.811C251.088 182.901 251.118 183.001 251.13 183.105C251.142 183.208 251.136 183.314 251.113 183.415C251.09 183.516 251.05 183.611 250.995 183.694C228.375 218.067 220.82 259.975 218.464 289.079C215.911 320.633 218.748 344.327 218.777 344.563C218.791 344.675 218.784 344.79 218.756 344.9C218.728 345.009 218.68 345.11 218.615 345.196C218.551 345.282 218.471 345.351 218.381 345.399C218.292 345.446 218.195 345.47 218.096 345.47L218.096 345.47Z" fill="#3F3D56"/>
<path d="M229.503 228.576C229.358 228.577 229.216 228.523 229.099 228.425C228.981 228.326 228.894 228.187 228.849 228.027C228.804 227.867 228.804 227.695 228.849 227.535C228.893 227.375 228.981 227.236 229.098 227.137C229.181 227.067 237.528 220.103 250.007 214.813C261.543 209.923 279.085 205.489 297.144 212.144C297.23 212.176 297.31 212.227 297.379 212.294C297.448 212.362 297.505 212.444 297.547 212.537C297.588 212.63 297.613 212.731 297.621 212.835C297.629 212.94 297.619 213.044 297.591 213.144C297.564 213.244 297.52 213.336 297.462 213.416C297.403 213.496 297.332 213.562 297.252 213.61C297.172 213.658 297.084 213.687 296.994 213.696C296.904 213.704 296.813 213.692 296.727 213.661C279.038 207.142 261.814 211.502 250.48 216.307C238.179 221.522 229.987 228.356 229.906 228.424C229.789 228.523 229.648 228.576 229.503 228.576Z" fill="#3F3D56"/>
<path d="M90.8862 323.787L93.2082 324.628L108.789 266.978C108.152 266.79 107.477 266.892 106.903 267.262C106.328 267.633 105.899 268.244 105.701 268.97L90.8862 323.787Z" fill="#3F3D56"/>
<path d="M142.095 248.585H131.823V213.626H142.095C144.06 213.629 145.944 214.534 147.334 216.143C148.723 217.752 149.505 219.933 149.507 222.209V240.003C149.505 242.278 148.723 244.46 147.334 246.068C145.944 247.677 144.06 248.582 142.095 248.585Z" fill="#2F2E41"/>
<path d="M140.665 229.857C140.322 229.857 139.993 229.699 139.751 229.418C139.508 229.137 139.372 228.756 139.371 228.359V215.374H141.959V228.359C141.959 228.756 141.823 229.137 141.58 229.418C141.337 229.699 141.008 229.857 140.665 229.857Z" fill="#3F3D56"/>
<path d="M143.776 245.838H136.26C135.827 245.838 135.412 245.638 135.106 245.284C134.8 244.929 134.627 244.448 134.627 243.947V238.74C134.627 238.239 134.8 237.758 135.106 237.404C135.412 237.049 135.827 236.849 136.26 236.849H143.776C144.209 236.849 144.625 237.049 144.931 237.404C145.237 237.758 145.409 238.239 145.41 238.74V243.947C145.409 244.448 145.237 244.929 144.931 245.284C144.625 245.638 144.209 245.838 143.776 245.838Z" fill="#3F3D56"/>
<path d="M121.862 209.989C121.685 209.989 121.514 209.918 121.377 209.789C121.293 209.709 121.223 209.609 121.173 209.497C121.123 209.385 121.094 209.261 121.087 209.135C120.845 204.655 121.517 200.172 123.049 196.049C124.087 193.265 125.282 191.472 126.808 190.404C128.844 188.98 131.638 188.867 134.473 190.092C136.093 190.793 137.261 191.708 138.045 192.891C139.09 194.469 139.418 196.494 139.617 198.447C139.916 201.402 139.987 204.382 139.827 207.351C139.82 207.504 139.778 207.653 139.705 207.781C139.632 207.909 139.53 208.013 139.412 208.081C139.283 208.154 139.14 208.187 138.997 208.176C138.854 208.165 138.717 208.111 138.597 208.019C138.549 207.983 138.5 207.949 138.449 207.918C138.19 207.768 137.905 207.692 137.616 207.697C137.327 207.701 137.043 207.785 136.788 207.943C136.601 208.071 136.424 208.218 136.26 208.382L135.24 209.338C135.115 209.453 134.961 209.522 134.801 209.533C134.641 209.545 134.481 209.5 134.344 209.403C133.604 208.917 132.778 208.635 131.929 208.578C130.802 208.529 129.674 208.624 128.565 208.861L121.977 209.979C121.939 209.985 121.9 209.989 121.862 209.989Z" fill="#2F2E41"/>
<path d="M120.983 337.218H117.464L115.791 321.505H120.983L120.983 337.218Z" fill="#FFB6B6"/>
<path d="M122.875 344.953H120.379L119.933 342.224L118.792 344.953H112.171C111.853 344.953 111.544 344.835 111.289 344.618C111.033 344.4 110.844 344.093 110.75 343.742C110.655 343.391 110.66 343.015 110.763 342.667C110.867 342.32 111.064 342.02 111.325 341.811L116.612 337.583V334.824L122.174 335.208L122.875 344.953Z" fill="#2F2E41"/>
<path d="M161.472 333.733L158.228 335.312L151.426 321.578L156.212 319.248L161.472 333.733Z" fill="#FFB6B6"/>
<path d="M165.806 340.014L163.504 341.134L162.18 338.818L162.042 341.846L155.938 344.818C155.645 344.961 155.321 344.991 155.013 344.905C154.704 344.819 154.427 344.621 154.223 344.34C154.018 344.059 153.897 343.71 153.876 343.343C153.855 342.976 153.936 342.611 154.107 342.302L157.565 336.031L156.642 333.487L161.897 331.346L165.806 340.014Z" fill="#2F2E41"/>
<path d="M119.339 230.204L118.33 245.843L111.644 269.2L108.958 267.392L112.602 243.639L113.839 229.936L119.339 230.204Z" fill="#FFB6B6"/>
<path d="M110.084 272.606C111.638 272.606 112.898 271.147 112.898 269.347C112.898 267.548 111.638 266.089 110.084 266.089C108.53 266.089 107.27 267.548 107.27 269.347C107.27 271.147 108.53 272.606 110.084 272.606Z" fill="#FFB6B6"/>
<path d="M136.496 248.216V252.531C136.496 252.531 142.263 264.298 139.915 269.347L148.573 296.771C148.573 296.771 160.314 310.366 159.308 320.077L159.979 323.184L152.263 327.069L150.586 324.35L137.503 298.325L126.432 274.63L124.419 302.597C124.419 302.597 125.761 324.35 122.071 326.68L121.735 330.176H113.905V326.853C113.905 326.853 111 315.027 112.678 306.093L112.007 268.415C112.007 268.415 115.026 252.489 118.716 249.77L120.058 245.886L136.496 248.216Z" fill="#2F2E41"/>
<path d="M142.658 218.313L135.346 214.349L133.235 210.09L126.137 210.556L123.99 214.615L117.672 216.097L118.601 242.535C118.187 243.365 118.04 244.336 118.184 245.279C118.406 246.936 119.532 245.632 118.406 246.936C117.28 248.239 116.432 247.584 116.997 248.726C117.562 249.869 116.172 251.649 116.172 251.649C116.172 251.649 134.143 262.248 139.22 248.726C139.22 248.726 140.221 244.771 138.53 236.485C136.839 228.199 142.658 218.313 142.658 218.313Z" fill="#E4E4E4"/>
<path d="M119.748 217.781L117.672 216.097C117.672 216.097 114.801 217.462 114.704 220.224C114.607 222.985 112.956 231.25 112.956 231.25L119.512 235.331L119.748 217.781Z" fill="#E4E4E4"/>
<path d="M144.385 231.507L143.377 247.147L132.188 266.593L129.502 264.785L137.648 244.942L138.886 231.239L144.385 231.507Z" fill="#FFB6B6"/>
<path d="M139.238 219.197L142.658 218.313C142.658 218.313 144.719 219.075 145.001 222.66C145.282 226.244 145.518 232.482 145.518 232.482L138.34 238.594L136.558 229.828L139.238 219.197Z" fill="#E4E4E4"/>
<path d="M130.346 269.999C131.901 269.999 133.161 268.54 133.161 266.741C133.161 264.941 131.901 263.482 130.346 263.482C128.792 263.482 127.532 264.941 127.532 266.741C127.532 268.54 128.792 269.999 130.346 269.999Z" fill="#FFB6B6"/>
<path d="M129.044 208.694C132.666 208.694 135.601 205.295 135.601 201.101C135.601 196.908 132.666 193.509 129.044 193.509C125.423 193.509 122.487 196.908 122.487 201.101C122.487 205.295 125.423 208.694 129.044 208.694Z" fill="#FFB7B7"/>
<path d="M123.703 199.957H123.703C122.868 199.956 122.031 199.955 121.194 199.953C121.094 199.952 120.995 199.929 120.904 199.883C120.812 199.838 120.729 199.772 120.659 199.689C120.591 199.608 120.538 199.511 120.502 199.406C120.467 199.3 120.451 199.187 120.454 199.074C120.516 197.465 120.913 195.897 121.612 194.504C122.31 193.112 123.289 191.935 124.465 191.076C125.702 190.202 127.113 189.715 128.561 189.662C130.009 189.609 131.444 189.992 132.726 190.773C134.008 191.554 135.093 192.707 135.875 194.119C136.657 195.531 137.11 197.153 137.188 198.828C137.194 198.941 137.18 199.054 137.147 199.161C137.115 199.268 137.064 199.366 136.998 199.45C136.932 199.534 136.853 199.602 136.764 199.65C136.676 199.698 136.58 199.725 136.482 199.73C133.58 199.872 130.361 199.941 126.044 199.954H126.042C125.895 199.954 125.752 199.904 125.63 199.809C125.508 199.714 125.413 199.579 125.358 199.422L125.288 199.225C125.252 199.121 125.188 199.034 125.106 198.975C125.023 198.916 124.927 198.889 124.831 198.898C124.734 198.906 124.643 198.95 124.569 199.022C124.495 199.095 124.444 199.193 124.421 199.301C124.383 199.488 124.291 199.655 124.161 199.774C124.03 199.893 123.869 199.957 123.703 199.957Z" fill="#2F2E41"/>
<path d="M138.381 238.247C136.618 236.327 135.861 233.54 135.849 230.789C135.835 227.647 136.817 224.662 138.088 221.93C138.856 220.277 139.732 218.696 140.608 217.118C140.902 216.588 140.172 216.097 139.879 216.625C136.915 221.963 133.651 228.285 135.562 234.845C136.001 236.4 136.764 237.806 137.784 238.938C138.179 239.369 138.777 238.679 138.381 238.247H138.381Z" fill="#3F3D56"/>
<path d="M90.9316 296.58C89.4795 296.05 87.9276 296.005 86.4544 296.45C86.4509 296.452 86.4484 296.452 86.4451 296.454C85.3033 296.797 84.2389 297.422 83.3244 298.285C83.2713 298.334 83.2208 298.385 83.1702 298.435C82.0116 299.586 81.1562 301.091 80.7019 302.779L74.4367 325.96C73.9707 327.676 73.9388 329.51 74.345 331.246C74.3695 331.344 74.3941 331.441 74.4188 331.539C74.7229 332.689 75.2123 333.762 75.8613 334.702C75.8653 334.707 75.8686 334.712 75.8709 334.718C76.8838 336.175 78.2481 337.249 79.7899 337.805L91.606 342.086L102.748 300.862L90.9316 296.58Z" fill="#6C63FF"/>
<path d="M109.563 267.258L94.3455 323.564C94.2976 323.741 94.2803 323.926 94.2945 324.111C94.3086 324.295 94.354 324.474 94.4281 324.638C94.5021 324.802 94.6034 324.948 94.726 325.067C94.8487 325.185 94.9903 325.275 95.1428 325.33C95.2954 325.385 95.4558 325.405 95.615 325.389C95.7742 325.372 95.9291 325.32 96.0706 325.234C96.2122 325.148 96.3378 325.03 96.4402 324.888C96.5426 324.746 96.6198 324.582 96.6674 324.405L111.119 270.933C111.315 270.207 111.263 269.421 110.973 268.737C110.684 268.054 110.179 267.524 109.563 267.258Z" fill="#3F3D56"/>
<path d="M90.5841 345.175C91.7873 345.175 92.7628 344.045 92.7628 342.652C92.7628 341.259 91.7873 340.129 90.5841 340.129C89.3808 340.129 88.4054 341.259 88.4054 342.652C88.4054 344.045 89.3808 345.175 90.5841 345.175Z" fill="#3F3D56"/>
<path d="M76.3943 340.033C77.5975 340.033 78.573 338.904 78.573 337.511C78.573 336.117 77.5975 334.988 76.3943 334.988C75.191 334.988 74.2156 336.117 74.2156 337.511C74.2156 338.904 75.191 340.033 76.3943 340.033Z" fill="#3F3D56"/>
<path d="M86.454 296.45C84.1975 304.642 78.2864 326.063 75.8705 334.718C75.8682 334.712 75.8649 334.707 75.8609 334.702C75.212 333.762 74.7225 332.689 74.4184 331.539C74.3938 331.441 74.3692 331.344 74.3446 331.246C76.9349 321.841 81.2732 305.977 83.1699 298.435C83.2205 298.385 83.2709 298.334 83.324 298.285C84.2385 297.422 85.3029 296.797 86.4447 296.454C86.448 296.452 86.4506 296.452 86.454 296.45Z" fill="#3F3D56"/>
<path d="M264.487 345.34H55.3835C55.2817 345.339 55.1842 345.292 55.1123 345.209C55.0404 345.125 55 345.012 55 344.894C55 344.776 55.0404 344.663 55.1123 344.58C55.1842 344.496 55.2817 344.449 55.3835 344.449H264.487C264.588 344.449 264.686 344.496 264.758 344.58C264.83 344.663 264.87 344.776 264.87 344.894C264.87 345.012 264.83 345.125 264.758 345.209C264.686 345.292 264.588 345.339 264.487 345.34Z" fill="#CACACA"/>
<path d="M156.506 111.771C153.186 107.947 150.005 102.747 145.322 102.749C138.126 102.753 135.034 114.818 127.992 116.532C124.847 117.298 121.638 115.774 118.424 115.708C115.211 115.642 111.367 118.343 112.046 121.981L173.311 120.911C166.978 120.15 161.055 116.928 156.506 111.771Z" fill="#F0F0F0"/>
<path d="M292.952 95.8166C285.756 95.82 282.665 107.885 275.623 109.599C272.477 110.365 269.268 108.841 266.055 108.775C262.841 108.709 258.997 111.411 259.676 115.048L320.941 113.979C314.609 113.217 308.686 109.996 304.137 104.838C300.816 101.015 297.635 95.8144 292.952 95.8166Z" fill="#F0F0F0"/>
</svg>
