<svg width="501" height="501" viewBox="0 0 501 501" fill="none" xmlns="http://www.w3.org/2000/svg">
<rect width="501" height="501" fill="#49596A"/>
<g style="mix-blend-mode:hard-light" filter="url(#filter0_f_107_38)">
<path d="M167.679 202.726L250.6 154.852L333.52 202.726V298.474L250.6 346.348L167.679 298.474V202.726Z" stroke="#00A8A8" stroke-width="3.9"/>
</g>
<g style="mix-blend-mode:hard-light" filter="url(#filter1_f_107_38)">
<path d="M168.279 203.072L250.6 155.544L332.92 203.072V298.128L250.6 345.655L168.279 298.128V203.072Z" stroke="#00A8A8" stroke-width="5.1"/>
</g>
<g style="mix-blend-mode:hard-light" filter="url(#filter2_ddi_107_38)">
<path d="M167.679 202.726L250.6 154.852L333.52 202.726V298.474L250.6 346.348L167.679 298.474V202.726Z" stroke="#33E9C6" stroke-opacity="0.2" stroke-width="3.9"/>
</g>
<g filter="url(#filter3_f_107_38)">
<path d="M166.929 202.293L250.6 153.986L334.27 202.293V298.907L250.6 347.214L166.929 298.907V202.293Z" stroke="#33E9E9" stroke-width="2.4"/>
</g>
<g filter="url(#filter4_f_107_38)">
<path d="M166.329 201.946L250.6 153.293L334.87 201.946V299.254L250.6 347.907L166.329 299.254V201.946Z" stroke="white" stroke-width="1.2"/>
</g>
<g style="mix-blend-mode:hard-light" filter="url(#filter5_f_107_38)">
<path d="M233.53 223.44H252.85C254.717 223.44 256.56 223.673 258.38 224.14C260.2 224.56 261.81 225.283 263.21 226.31C264.657 227.29 265.823 228.573 266.71 230.16C267.597 231.747 268.04 233.66 268.04 235.9C268.04 238.7 267.247 241.01 265.66 242.83C264.073 244.65 261.997 245.957 259.43 246.75V246.89C260.97 247.077 262.393 247.52 263.7 248.22C265.053 248.873 266.197 249.737 267.13 250.81C268.063 251.837 268.787 253.05 269.3 254.45C269.86 255.803 270.14 257.273 270.14 258.86C270.14 261.567 269.603 263.83 268.53 265.65C267.457 267.423 266.033 268.87 264.26 269.99C262.533 271.063 260.527 271.833 258.24 272.3C256 272.767 253.713 273 251.38 273H233.53V223.44ZM242.35 243.6H250.4C253.34 243.6 255.533 243.04 256.98 241.92C258.473 240.753 259.22 239.237 259.22 237.37C259.22 235.223 258.45 233.637 256.91 232.61C255.417 231.537 252.99 231 249.63 231H242.35V243.6ZM242.35 265.44H250.47C251.59 265.44 252.78 265.37 254.04 265.23C255.347 265.09 256.537 264.763 257.61 264.25C258.683 263.737 259.57 263.013 260.27 262.08C260.97 261.1 261.32 259.793 261.32 258.16C261.32 255.547 260.457 253.727 258.73 252.7C257.05 251.673 254.413 251.16 250.82 251.16H242.35V265.44Z" fill="#49596A"/>
<path d="M233.53 223.44V221.517H231.607V223.44H233.53ZM258.38 224.14L257.902 226.003L257.925 226.008L257.948 226.014L258.38 224.14ZM263.21 226.31L262.073 227.861L262.102 227.882L262.132 227.902L263.21 226.31ZM266.71 230.16L268.389 229.222L268.389 229.222L266.71 230.16ZM265.66 242.83L267.109 244.094L267.109 244.094L265.66 242.83ZM259.43 246.75L258.862 244.913L257.507 245.332V246.75H259.43ZM259.43 246.89H257.507V248.594L259.199 248.799L259.43 246.89ZM263.7 248.22L262.792 249.915L262.828 249.934L262.864 249.952L263.7 248.22ZM267.13 250.81L265.679 252.072L265.693 252.088L265.707 252.103L267.13 250.81ZM269.3 254.45L267.495 255.112L267.508 255.149L267.523 255.185L269.3 254.45ZM268.53 265.65L270.175 266.646L270.181 266.636L270.186 266.627L268.53 265.65ZM264.26 269.99L265.275 271.623L265.287 271.616L264.26 269.99ZM258.24 272.3L257.855 270.416L257.848 270.418L258.24 272.3ZM233.53 273H231.607V274.923H233.53V273ZM242.35 243.6H240.427V245.523H242.35V243.6ZM256.98 241.92L258.157 243.441L258.164 243.435L256.98 241.92ZM256.91 232.61L255.788 234.171L255.815 234.191L255.843 234.21L256.91 232.61ZM242.35 231V229.077H240.427V231H242.35ZM242.35 265.44H240.427V267.363H242.35V265.44ZM254.04 265.23L253.835 263.318L253.828 263.319L254.04 265.23ZM257.61 264.25L258.44 265.985L258.44 265.985L257.61 264.25ZM260.27 262.08L261.808 263.234L261.822 263.216L261.835 263.198L260.27 262.08ZM258.73 252.7L257.727 254.341L257.737 254.347L257.747 254.353L258.73 252.7ZM242.35 251.16V249.237H240.427V251.16H242.35ZM233.53 225.363H252.85V221.517H233.53V225.363ZM252.85 225.363C254.555 225.363 256.237 225.576 257.902 226.003L258.858 222.277C256.883 221.771 254.879 221.517 252.85 221.517V225.363ZM257.948 226.014C259.533 226.379 260.899 227 262.073 227.861L264.347 224.759C262.721 223.567 260.867 222.741 258.812 222.266L257.948 226.014ZM262.132 227.902C263.32 228.707 264.285 229.762 265.031 231.098L268.389 229.222C267.362 227.384 265.994 225.873 264.288 224.718L262.132 227.902ZM265.031 231.098C265.725 232.339 266.117 233.913 266.117 235.9H269.963C269.963 233.407 269.469 231.155 268.389 229.222L265.031 231.098ZM266.117 235.9C266.117 238.314 265.444 240.152 264.211 241.566L267.109 244.094C269.049 241.868 269.963 239.086 269.963 235.9H266.117ZM264.211 241.566C262.885 243.087 261.127 244.213 258.862 244.913L259.998 248.587C262.866 247.701 265.262 246.213 267.109 244.094L264.211 241.566ZM257.507 246.75V246.89H261.353V246.75H257.507ZM259.199 248.799C260.513 248.958 261.705 249.333 262.792 249.915L264.608 246.525C263.081 245.707 261.427 245.195 259.661 244.981L259.199 248.799ZM262.864 249.952C263.996 250.498 264.926 251.206 265.679 252.072L268.581 249.548C267.467 248.267 266.111 247.248 264.536 246.488L262.864 249.952ZM265.707 252.103C266.461 252.933 267.06 253.928 267.495 255.112L271.105 253.788C270.513 252.172 269.665 250.74 268.553 249.517L265.707 252.103ZM267.523 255.185C267.979 256.287 268.217 257.504 268.217 258.86H272.063C272.063 257.042 271.741 255.32 271.077 253.715L267.523 255.185ZM268.217 258.86C268.217 261.318 267.73 263.221 266.874 264.673L270.186 266.627C271.477 264.439 272.063 261.815 272.063 258.86H268.217ZM266.885 264.654C265.968 266.169 264.757 267.401 263.233 268.364L265.287 271.616C267.309 270.339 268.945 268.677 270.175 266.646L266.885 264.654ZM263.245 268.357C261.738 269.293 259.951 269.988 257.855 270.416L258.625 274.184C261.102 273.678 263.328 272.833 265.275 271.623L263.245 268.357ZM257.848 270.418C255.739 270.857 253.584 271.077 251.38 271.077V274.923C253.842 274.923 256.261 274.677 258.632 274.182L257.848 270.418ZM251.38 271.077H233.53V274.923H251.38V271.077ZM235.453 273V223.44H231.607V273H235.453ZM242.35 245.523H250.4V241.677H242.35V245.523ZM250.4 245.523C253.526 245.523 256.223 244.938 258.157 243.44L255.803 240.4C254.843 241.142 253.154 241.677 250.4 241.677V245.523ZM258.164 243.435C260.115 241.911 261.143 239.839 261.143 237.37H257.297C257.297 238.634 256.831 239.596 255.796 240.405L258.164 243.435ZM261.143 237.37C261.143 234.7 260.144 232.455 257.977 231.01L255.843 234.21C256.756 234.819 257.297 235.747 257.297 237.37H261.143ZM258.032 231.049C256.037 229.614 253.103 229.077 249.63 229.077V232.923C252.877 232.923 254.797 233.459 255.788 234.171L258.032 231.049ZM249.63 229.077H242.35V232.923H249.63V229.077ZM240.427 231V243.6H244.273V231H240.427ZM242.35 267.363H250.47V263.517H242.35V267.363ZM250.47 267.363C251.669 267.363 252.931 267.288 254.252 267.141L253.828 263.319C252.629 263.452 251.511 263.517 250.47 263.517V267.363ZM254.245 267.142C255.746 266.981 257.15 266.601 258.44 265.985L256.78 262.515C255.923 262.925 254.948 263.199 253.835 263.318L254.245 267.142ZM258.44 265.985C259.787 265.34 260.919 264.42 261.808 263.234L258.732 260.926C258.221 261.607 257.58 262.133 256.78 262.515L258.44 265.985ZM261.835 263.198C262.838 261.794 263.243 260.054 263.243 258.16H259.397C259.397 259.533 259.102 260.406 258.705 260.962L261.835 263.198ZM263.243 258.16C263.243 255.102 262.198 252.525 259.713 251.047L257.747 254.353C258.715 254.928 259.397 255.992 259.397 258.16H263.243ZM259.733 251.059C257.592 249.751 254.517 249.237 250.82 249.237V253.083C254.309 253.083 256.508 253.596 257.727 254.341L259.733 251.059ZM250.82 249.237H242.35V253.083H250.82V249.237ZM240.427 251.16V265.44H244.273V251.16H240.427Z" fill="#00A8A8"/>
</g>
<g style="mix-blend-mode:hard-light" filter="url(#filter6_f_107_38)">
<path d="M233.53 223.44H252.85C254.717 223.44 256.56 223.673 258.38 224.14C260.2 224.56 261.81 225.283 263.21 226.31C264.657 227.29 265.823 228.573 266.71 230.16C267.597 231.747 268.04 233.66 268.04 235.9C268.04 238.7 267.247 241.01 265.66 242.83C264.073 244.65 261.997 245.957 259.43 246.75V246.89C260.97 247.077 262.393 247.52 263.7 248.22C265.053 248.873 266.197 249.737 267.13 250.81C268.063 251.837 268.787 253.05 269.3 254.45C269.86 255.803 270.14 257.273 270.14 258.86C270.14 261.567 269.603 263.83 268.53 265.65C267.457 267.423 266.033 268.87 264.26 269.99C262.533 271.063 260.527 271.833 258.24 272.3C256 272.767 253.713 273 251.38 273H233.53V223.44ZM242.35 243.6H250.4C253.34 243.6 255.533 243.04 256.98 241.92C258.473 240.753 259.22 239.237 259.22 237.37C259.22 235.223 258.45 233.637 256.91 232.61C255.417 231.537 252.99 231 249.63 231H242.35V243.6ZM242.35 265.44H250.47C251.59 265.44 252.78 265.37 254.04 265.23C255.347 265.09 256.537 264.763 257.61 264.25C258.683 263.737 259.57 263.013 260.27 262.08C260.97 261.1 261.32 259.793 261.32 258.16C261.32 255.547 260.457 253.727 258.73 252.7C257.05 251.673 254.413 251.16 250.82 251.16H242.35V265.44Z" fill="#49596A"/>
<path d="M233.53 223.44V220.925H231.015V223.44H233.53ZM258.38 224.14L257.755 226.576L257.785 226.583L257.815 226.59L258.38 224.14ZM263.21 226.31L261.723 228.338L261.761 228.366L261.8 228.392L263.21 226.31ZM266.71 230.16L268.905 228.933L268.905 228.933L266.71 230.16ZM265.66 242.83L267.555 244.482L267.555 244.482L265.66 242.83ZM259.43 246.75L258.687 244.348L256.915 244.895V246.75H259.43ZM259.43 246.89H256.915V249.118L259.127 249.386L259.43 246.89ZM263.7 248.22L262.513 250.437L262.559 250.462L262.607 250.485L263.7 248.22ZM267.13 250.81L265.232 252.46L265.251 252.481L265.269 252.501L267.13 250.81ZM269.3 254.45L266.939 255.316L266.957 255.364L266.976 255.411L269.3 254.45ZM268.53 265.65L270.681 266.952L270.689 266.94L270.696 266.927L268.53 265.65ZM264.26 269.99L265.588 272.126L265.595 272.121L265.603 272.116L264.26 269.99ZM258.24 272.3L257.737 269.836L257.727 269.838L258.24 272.3ZM233.53 273H231.015V275.515H233.53V273ZM242.35 243.6H239.835V246.115H242.35V243.6ZM256.98 241.92L258.519 243.908L258.528 243.902L256.98 241.92ZM256.91 232.61L255.442 234.652L255.478 234.678L255.515 234.702L256.91 232.61ZM242.35 231V228.485H239.835V231H242.35ZM242.35 265.44H239.835V267.955H242.35V265.44ZM254.04 265.23L253.772 262.73L253.762 262.731L254.04 265.23ZM257.61 264.25L258.695 266.518L258.695 266.518L257.61 264.25ZM260.27 262.08L262.282 263.589L262.299 263.565L262.316 263.542L260.27 262.08ZM258.73 252.7L257.419 254.846L257.432 254.854L257.445 254.861L258.73 252.7ZM242.35 251.16V248.645H239.835V251.16H242.35ZM233.53 225.955H252.85V220.925H233.53V225.955ZM252.85 225.955C254.505 225.955 256.138 226.161 257.755 226.576L259.005 221.704C256.982 221.186 254.929 220.925 252.85 220.925V225.955ZM257.815 226.59C259.327 226.939 260.619 227.528 261.723 228.338L264.697 224.282C263.001 223.039 261.073 222.181 258.945 221.69L257.815 226.59ZM261.8 228.392C262.908 229.143 263.812 230.128 264.515 231.387L268.905 228.933C267.835 227.018 266.405 225.437 264.62 224.228L261.8 228.392ZM264.515 231.387C265.149 232.521 265.525 233.991 265.525 235.9H270.555C270.555 233.329 270.045 230.973 268.905 228.933L264.515 231.387ZM265.525 235.9C265.525 238.195 264.889 239.887 263.765 241.178L267.555 244.482C269.604 242.133 270.555 239.205 270.555 235.9H265.525ZM263.765 241.178C262.519 242.607 260.859 243.676 258.687 244.348L260.173 249.152C263.134 248.237 265.628 246.693 267.555 244.482L263.765 241.178ZM256.915 246.75V246.89H261.945V246.75H256.915ZM259.127 249.386C260.372 249.537 261.494 249.891 262.513 250.437L264.887 246.003C263.293 245.149 261.568 244.616 259.733 244.394L259.127 249.386ZM262.607 250.485C263.671 250.998 264.535 251.658 265.232 252.46L269.028 249.16C267.858 247.815 266.436 246.748 264.793 245.955L262.607 250.485ZM265.269 252.501C265.968 253.27 266.529 254.198 266.939 255.316L271.661 253.584C271.044 251.902 270.158 250.403 268.991 249.119L265.269 252.501ZM266.976 255.411C267.4 256.435 267.625 257.576 267.625 258.86H272.655C272.655 256.971 272.32 255.171 271.624 253.489L266.976 255.411ZM267.625 258.86C267.625 261.241 267.153 263.034 266.364 264.373L270.696 266.927C272.053 264.626 272.655 261.892 272.655 258.86H267.625ZM266.379 264.348C265.51 265.784 264.365 266.95 262.917 267.864L265.603 272.116C267.702 270.79 269.403 269.063 270.681 266.952L266.379 264.348ZM262.932 267.854C261.494 268.749 259.774 269.42 257.737 269.836L258.743 274.764C261.279 274.246 263.573 273.378 265.588 272.126L262.932 267.854ZM257.727 269.838C255.659 270.269 253.544 270.485 251.38 270.485V275.515C253.882 275.515 256.341 275.264 258.753 274.762L257.727 269.838ZM251.38 270.485H233.53V275.515H251.38V270.485ZM236.045 273V223.44H231.015V273H236.045ZM242.35 246.115H250.4V241.085H242.35V246.115ZM250.4 246.115C253.583 246.115 256.436 245.522 258.519 243.908L255.441 239.932C254.631 240.558 253.097 241.085 250.4 241.085V246.115ZM258.528 243.902C260.621 242.267 261.735 240.024 261.735 237.37H256.705C256.705 238.449 256.326 239.24 255.432 239.938L258.528 243.902ZM261.735 237.37C261.735 234.539 260.665 232.091 258.305 230.518L255.515 234.702C256.235 235.182 256.705 235.908 256.705 237.37H261.735ZM258.378 230.568C256.227 229.023 253.138 228.485 249.63 228.485V233.515C252.842 233.515 254.606 234.051 255.442 234.652L258.378 230.568ZM249.63 228.485H242.35V233.515H249.63V228.485ZM239.835 231V243.6H244.865V231H239.835ZM242.35 267.955H250.47V262.925H242.35V267.955ZM250.47 267.955C251.694 267.955 252.977 267.878 254.318 267.729L253.762 262.731C252.583 262.862 251.486 262.925 250.47 262.925V267.955ZM254.308 267.73C255.869 267.563 257.339 267.167 258.695 266.518L256.525 261.982C255.734 262.36 254.825 262.617 253.772 262.73L254.308 267.73ZM258.695 266.518C260.126 265.834 261.334 264.853 262.282 263.589L258.258 260.571C257.806 261.174 257.24 261.639 256.525 261.982L258.695 266.518ZM262.316 263.542C263.412 262.007 263.835 260.134 263.835 258.16H258.805C258.805 259.452 258.528 260.193 258.224 260.618L262.316 263.542ZM263.835 258.16C263.835 254.965 262.734 252.155 260.015 250.539L257.445 254.861C258.179 255.298 258.805 256.129 258.805 258.16H263.835ZM260.041 250.554C257.759 249.159 254.549 248.645 250.82 248.645V253.675C254.277 253.675 256.341 254.187 257.419 254.846L260.041 250.554ZM250.82 248.645H242.35V253.675H250.82V248.645ZM239.835 251.16V265.44H244.865V251.16H239.835Z" fill="#00A8A8"/>
</g>
<g style="mix-blend-mode:hard-light" filter="url(#filter7_ddi_107_38)">
<path d="M233.53 223.44H252.85C254.717 223.44 256.56 223.673 258.38 224.14C260.2 224.56 261.81 225.283 263.21 226.31C264.657 227.29 265.823 228.573 266.71 230.16C267.597 231.747 268.04 233.66 268.04 235.9C268.04 238.7 267.247 241.01 265.66 242.83C264.073 244.65 261.997 245.957 259.43 246.75V246.89C260.97 247.077 262.393 247.52 263.7 248.22C265.053 248.873 266.197 249.737 267.13 250.81C268.063 251.837 268.787 253.05 269.3 254.45C269.86 255.803 270.14 257.273 270.14 258.86C270.14 261.567 269.603 263.83 268.53 265.65C267.457 267.423 266.033 268.87 264.26 269.99C262.533 271.063 260.527 271.833 258.24 272.3C256 272.767 253.713 273 251.38 273H233.53V223.44ZM242.35 243.6H250.4C253.34 243.6 255.533 243.04 256.98 241.92C258.473 240.753 259.22 239.237 259.22 237.37C259.22 235.223 258.45 233.637 256.91 232.61C255.417 231.537 252.99 231 249.63 231H242.35V243.6ZM242.35 265.44H250.47C251.59 265.44 252.78 265.37 254.04 265.23C255.347 265.09 256.537 264.763 257.61 264.25C258.683 263.737 259.57 263.013 260.27 262.08C260.97 261.1 261.32 259.793 261.32 258.16C261.32 255.547 260.457 253.727 258.73 252.7C257.05 251.673 254.413 251.16 250.82 251.16H242.35V265.44Z" fill="#49596A"/>
<path d="M233.53 223.44V221.517H231.607V223.44H233.53ZM258.38 224.14L257.902 226.003L257.925 226.008L257.948 226.014L258.38 224.14ZM263.21 226.31L262.073 227.861L262.102 227.882L262.132 227.902L263.21 226.31ZM266.71 230.16L268.389 229.222L268.389 229.222L266.71 230.16ZM265.66 242.83L267.109 244.094L267.109 244.094L265.66 242.83ZM259.43 246.75L258.862 244.913L257.507 245.332V246.75H259.43ZM259.43 246.89H257.507V248.594L259.199 248.799L259.43 246.89ZM263.7 248.22L262.792 249.915L262.828 249.934L262.864 249.952L263.7 248.22ZM267.13 250.81L265.679 252.072L265.693 252.088L265.707 252.103L267.13 250.81ZM269.3 254.45L267.495 255.112L267.508 255.149L267.523 255.185L269.3 254.45ZM268.53 265.65L270.175 266.646L270.181 266.636L270.186 266.627L268.53 265.65ZM264.26 269.99L265.275 271.623L265.287 271.616L264.26 269.99ZM258.24 272.3L257.855 270.416L257.848 270.418L258.24 272.3ZM233.53 273H231.607V274.923H233.53V273ZM242.35 243.6H240.427V245.523H242.35V243.6ZM256.98 241.92L258.157 243.441L258.164 243.435L256.98 241.92ZM256.91 232.61L255.788 234.171L255.815 234.191L255.843 234.21L256.91 232.61ZM242.35 231V229.077H240.427V231H242.35ZM242.35 265.44H240.427V267.363H242.35V265.44ZM254.04 265.23L253.835 263.318L253.828 263.319L254.04 265.23ZM257.61 264.25L258.44 265.985L258.44 265.985L257.61 264.25ZM260.27 262.08L261.808 263.234L261.822 263.216L261.835 263.198L260.27 262.08ZM258.73 252.7L257.727 254.341L257.737 254.347L257.747 254.353L258.73 252.7ZM242.35 251.16V249.237H240.427V251.16H242.35ZM233.53 225.363H252.85V221.517H233.53V225.363ZM252.85 225.363C254.555 225.363 256.237 225.576 257.902 226.003L258.858 222.277C256.883 221.771 254.879 221.517 252.85 221.517V225.363ZM257.948 226.014C259.533 226.379 260.899 227 262.073 227.861L264.347 224.759C262.721 223.567 260.867 222.741 258.812 222.266L257.948 226.014ZM262.132 227.902C263.32 228.707 264.285 229.762 265.031 231.098L268.389 229.222C267.362 227.384 265.994 225.873 264.288 224.718L262.132 227.902ZM265.031 231.098C265.725 232.339 266.117 233.913 266.117 235.9H269.963C269.963 233.407 269.469 231.155 268.389 229.222L265.031 231.098ZM266.117 235.9C266.117 238.314 265.444 240.152 264.211 241.566L267.109 244.094C269.049 241.868 269.963 239.086 269.963 235.9H266.117ZM264.211 241.566C262.885 243.087 261.127 244.213 258.862 244.913L259.998 248.587C262.866 247.701 265.262 246.213 267.109 244.094L264.211 241.566ZM257.507 246.75V246.89H261.353V246.75H257.507ZM259.199 248.799C260.513 248.958 261.705 249.333 262.792 249.915L264.608 246.525C263.081 245.707 261.427 245.195 259.661 244.981L259.199 248.799ZM262.864 249.952C263.996 250.498 264.926 251.206 265.679 252.072L268.581 249.548C267.467 248.267 266.111 247.248 264.536 246.488L262.864 249.952ZM265.707 252.103C266.461 252.933 267.06 253.928 267.495 255.112L271.105 253.788C270.513 252.172 269.665 250.74 268.553 249.517L265.707 252.103ZM267.523 255.185C267.979 256.287 268.217 257.504 268.217 258.86H272.063C272.063 257.042 271.741 255.32 271.077 253.715L267.523 255.185ZM268.217 258.86C268.217 261.318 267.73 263.221 266.874 264.673L270.186 266.627C271.477 264.439 272.063 261.815 272.063 258.86H268.217ZM266.885 264.654C265.968 266.169 264.757 267.401 263.233 268.364L265.287 271.616C267.309 270.339 268.945 268.677 270.175 266.646L266.885 264.654ZM263.245 268.357C261.738 269.293 259.951 269.988 257.855 270.416L258.625 274.184C261.102 273.678 263.328 272.833 265.275 271.623L263.245 268.357ZM257.848 270.418C255.739 270.857 253.584 271.077 251.38 271.077V274.923C253.842 274.923 256.261 274.677 258.632 274.182L257.848 270.418ZM251.38 271.077H233.53V274.923H251.38V271.077ZM235.453 273V223.44H231.607V273H235.453ZM242.35 245.523H250.4V241.677H242.35V245.523ZM250.4 245.523C253.526 245.523 256.223 244.938 258.157 243.44L255.803 240.4C254.843 241.142 253.154 241.677 250.4 241.677V245.523ZM258.164 243.435C260.115 241.911 261.143 239.839 261.143 237.37H257.297C257.297 238.634 256.831 239.596 255.796 240.405L258.164 243.435ZM261.143 237.37C261.143 234.7 260.144 232.455 257.977 231.01L255.843 234.21C256.756 234.819 257.297 235.747 257.297 237.37H261.143ZM258.032 231.049C256.037 229.614 253.103 229.077 249.63 229.077V232.923C252.877 232.923 254.797 233.459 255.788 234.171L258.032 231.049ZM249.63 229.077H242.35V232.923H249.63V229.077ZM240.427 231V243.6H244.273V231H240.427ZM242.35 267.363H250.47V263.517H242.35V267.363ZM250.47 267.363C251.669 267.363 252.931 267.288 254.252 267.141L253.828 263.319C252.629 263.452 251.511 263.517 250.47 263.517V267.363ZM254.245 267.142C255.746 266.981 257.15 266.601 258.44 265.985L256.78 262.515C255.923 262.925 254.948 263.199 253.835 263.318L254.245 267.142ZM258.44 265.985C259.787 265.34 260.919 264.42 261.808 263.234L258.732 260.926C258.221 261.607 257.58 262.133 256.78 262.515L258.44 265.985ZM261.835 263.198C262.838 261.794 263.243 260.054 263.243 258.16H259.397C259.397 259.533 259.102 260.406 258.705 260.962L261.835 263.198ZM263.243 258.16C263.243 255.102 262.198 252.525 259.713 251.047L257.747 254.353C258.715 254.928 259.397 255.992 259.397 258.16H263.243ZM259.733 251.059C257.592 249.751 254.517 249.237 250.82 249.237V253.083C254.309 253.083 256.508 253.596 257.727 254.341L259.733 251.059ZM250.82 249.237H242.35V253.083H250.82V249.237ZM240.427 251.16V265.44H244.273V251.16H240.427Z" fill="#33E9C6" fill-opacity="0.2"/>
</g>
<g filter="url(#filter8_f_107_38)">
<path d="M233.53 223.44H252.85C254.717 223.44 256.56 223.673 258.38 224.14C260.2 224.56 261.81 225.283 263.21 226.31C264.657 227.29 265.823 228.573 266.71 230.16C267.597 231.747 268.04 233.66 268.04 235.9C268.04 238.7 267.247 241.01 265.66 242.83C264.073 244.65 261.997 245.957 259.43 246.75V246.89C260.97 247.077 262.393 247.52 263.7 248.22C265.053 248.873 266.197 249.737 267.13 250.81C268.063 251.837 268.787 253.05 269.3 254.45C269.86 255.803 270.14 257.273 270.14 258.86C270.14 261.567 269.603 263.83 268.53 265.65C267.457 267.423 266.033 268.87 264.26 269.99C262.533 271.063 260.527 271.833 258.24 272.3C256 272.767 253.713 273 251.38 273H233.53V223.44ZM242.35 243.6H250.4C253.34 243.6 255.533 243.04 256.98 241.92C258.473 240.753 259.22 239.237 259.22 237.37C259.22 235.223 258.45 233.637 256.91 232.61C255.417 231.537 252.99 231 249.63 231H242.35V243.6ZM242.35 265.44H250.47C251.59 265.44 252.78 265.37 254.04 265.23C255.347 265.09 256.537 264.763 257.61 264.25C258.683 263.737 259.57 263.013 260.27 262.08C260.97 261.1 261.32 259.793 261.32 258.16C261.32 255.547 260.457 253.727 258.73 252.7C257.05 251.673 254.413 251.16 250.82 251.16H242.35V265.44Z" fill="#49596A"/>
<path d="M233.53 223.44V222.257H232.347V223.44H233.53ZM258.38 224.14L258.086 225.286L258.1 225.29L258.114 225.293L258.38 224.14ZM263.21 226.31L262.51 227.264L262.528 227.277L262.546 227.29L263.21 226.31ZM266.71 230.16L267.743 229.583L267.743 229.583L266.71 230.16ZM265.66 242.83L266.552 243.608L266.552 243.608L265.66 242.83ZM259.43 246.75L259.081 245.619L258.247 245.877V246.75H259.43ZM259.43 246.89H258.247V247.939L259.288 248.065L259.43 246.89ZM263.7 248.22L263.141 249.263L263.163 249.275L263.186 249.286L263.7 248.22ZM267.13 250.81L266.237 251.586L266.246 251.596L266.254 251.606L267.13 250.81ZM269.3 254.45L268.189 254.857L268.197 254.88L268.207 254.902L269.3 254.45ZM268.53 265.65L269.542 266.263L269.549 266.251L268.53 265.65ZM264.26 269.99L264.885 270.995L264.892 270.99L264.26 269.99ZM258.24 272.3L258.003 271.141L257.999 271.142L258.24 272.3ZM233.53 273H232.347V274.183H233.53V273ZM242.35 243.6H241.167V244.783H242.35V243.6ZM256.98 241.92L257.704 242.856L257.709 242.852L256.98 241.92ZM256.91 232.61L256.219 233.571L256.236 233.583L256.254 233.595L256.91 232.61ZM242.35 231V229.817H241.167V231H242.35ZM242.35 265.44H241.167V266.623H242.35V265.44ZM254.04 265.23L253.914 264.053L253.909 264.054L254.04 265.23ZM257.61 264.25L258.121 265.318L258.121 265.318L257.61 264.25ZM260.27 262.08L261.217 262.79L261.225 262.779L261.233 262.768L260.27 262.08ZM258.73 252.7L258.113 253.71L258.119 253.713L258.125 253.717L258.73 252.7ZM242.35 251.16V249.977H241.167V251.16H242.35ZM233.53 224.623H252.85V222.257H233.53V224.623ZM252.85 224.623C254.617 224.623 256.361 224.844 258.086 225.286L258.674 222.994C256.759 222.503 254.816 222.257 252.85 222.257V224.623ZM258.114 225.293C259.789 225.68 261.249 226.34 262.51 227.264L263.91 225.356C262.371 224.227 260.611 223.44 258.646 222.987L258.114 225.293ZM262.546 227.29C263.834 228.162 264.877 229.305 265.677 230.737L267.743 229.583C266.77 227.842 265.479 226.418 263.874 225.33L262.546 227.29ZM265.677 230.737C266.445 232.111 266.857 233.816 266.857 235.9H269.223C269.223 233.504 268.749 231.382 267.743 229.583L265.677 230.737ZM266.857 235.9C266.857 238.462 266.137 240.482 264.768 242.052L266.552 243.608C268.356 241.538 269.223 238.938 269.223 235.9H266.857ZM264.768 242.052C263.342 243.688 261.461 244.884 259.081 245.619L259.779 247.881C262.532 247.03 264.805 245.612 266.552 243.608L264.768 242.052ZM258.247 246.75V246.89H260.613V246.75H258.247ZM259.288 248.065C260.689 248.235 261.97 248.636 263.141 249.263L264.259 247.177C262.817 246.404 261.251 245.919 259.572 245.715L259.288 248.065ZM263.186 249.286C264.403 249.873 265.415 250.641 266.237 251.586L268.023 250.034C266.978 248.832 265.704 247.873 264.214 247.154L263.186 249.286ZM266.254 251.606C267.077 252.511 267.724 253.59 268.189 254.857L270.411 254.043C269.849 252.51 269.049 251.162 268.006 250.014L266.254 251.606ZM268.207 254.902C268.702 256.101 268.957 257.416 268.957 258.86H271.323C271.323 257.131 271.018 255.506 270.393 253.998L268.207 254.902ZM268.957 258.86C268.957 261.414 268.45 263.455 267.511 265.049L269.549 266.251C270.756 264.205 271.323 261.72 271.323 258.86H268.957ZM267.518 265.037C266.541 266.652 265.248 267.966 263.628 268.99L264.892 270.99C266.818 269.774 268.373 268.195 269.542 266.263L267.518 265.037ZM263.635 268.985C262.044 269.974 260.173 270.698 258.003 271.141L258.477 273.459C260.881 272.969 263.023 272.152 264.885 270.995L263.635 268.985ZM257.999 271.142C255.84 271.591 253.634 271.817 251.38 271.817V274.183C253.793 274.183 256.16 273.942 258.481 273.458L257.999 271.142ZM251.38 271.817H233.53V274.183H251.38V271.817ZM234.713 273V223.44H232.347V273H234.713ZM242.35 244.783H250.4V242.417H242.35V244.783ZM250.4 244.783C253.455 244.783 255.958 244.208 257.704 242.856L256.256 240.984C255.109 241.872 253.225 242.417 250.4 242.417V244.783ZM257.709 242.852C259.484 241.466 260.403 239.607 260.403 237.37H258.037C258.037 238.866 257.463 240.041 256.251 240.988L257.709 242.852ZM260.403 237.37C260.403 234.901 259.492 232.909 257.566 231.625L256.254 233.595C257.408 234.364 258.037 235.546 258.037 237.37H260.403ZM257.601 231.649C255.798 230.354 253.06 229.817 249.63 229.817V232.183C252.92 232.183 255.035 232.72 256.219 233.571L257.601 231.649ZM249.63 229.817H242.35V232.183H249.63V229.817ZM241.167 231V243.6H243.533V231H241.167ZM242.35 266.623H250.47V264.257H242.35V266.623ZM250.47 266.623C251.639 266.623 252.873 266.55 254.171 266.406L253.909 264.054C252.687 264.19 251.541 264.257 250.47 264.257V266.623ZM254.166 266.407C255.592 266.254 256.914 265.894 258.121 265.318L257.099 263.182C256.159 263.632 255.101 263.926 253.914 264.053L254.166 266.407ZM258.121 265.318C259.362 264.724 260.4 263.879 261.217 262.79L259.323 261.37C258.74 262.148 258.004 262.75 257.099 263.182L258.121 265.318ZM261.233 262.768C262.119 261.527 262.503 259.954 262.503 258.16H260.137C260.137 259.633 259.821 260.673 259.307 261.392L261.233 262.768ZM262.503 258.16C262.503 255.273 261.528 252.987 259.335 251.683L258.125 253.717C259.385 254.466 260.137 255.821 260.137 258.16H262.503ZM259.347 251.69C257.383 250.49 254.477 249.977 250.82 249.977V252.343C254.349 252.343 256.717 252.856 258.113 253.71L259.347 251.69ZM250.82 249.977H242.35V252.343H250.82V249.977ZM241.167 251.16V265.44H243.533V251.16H241.167Z" fill="#33E9E9"/>
</g>
<g filter="url(#filter9_f_107_38)">
<path d="M233.53 223.44H252.85C254.717 223.44 256.56 223.673 258.38 224.14C260.2 224.56 261.81 225.283 263.21 226.31C264.657 227.29 265.823 228.573 266.71 230.16C267.597 231.747 268.04 233.66 268.04 235.9C268.04 238.7 267.247 241.01 265.66 242.83C264.073 244.65 261.997 245.957 259.43 246.75V246.89C260.97 247.077 262.393 247.52 263.7 248.22C265.053 248.873 266.197 249.737 267.13 250.81C268.063 251.837 268.787 253.05 269.3 254.45C269.86 255.803 270.14 257.273 270.14 258.86C270.14 261.567 269.603 263.83 268.53 265.65C267.457 267.423 266.033 268.87 264.26 269.99C262.533 271.063 260.527 271.833 258.24 272.3C256 272.767 253.713 273 251.38 273H233.53V223.44ZM242.35 243.6H250.4C253.34 243.6 255.533 243.04 256.98 241.92C258.473 240.753 259.22 239.237 259.22 237.37C259.22 235.223 258.45 233.637 256.91 232.61C255.417 231.537 252.99 231 249.63 231H242.35V243.6ZM242.35 265.44H250.47C251.59 265.44 252.78 265.37 254.04 265.23C255.347 265.09 256.537 264.763 257.61 264.25C258.683 263.737 259.57 263.013 260.27 262.08C260.97 261.1 261.32 259.793 261.32 258.16C261.32 255.547 260.457 253.727 258.73 252.7C257.05 251.673 254.413 251.16 250.82 251.16H242.35V265.44Z" fill="#49596A"/>
<path d="M233.53 223.44V222.848H232.938V223.44H233.53ZM258.38 224.14L258.233 224.713L258.24 224.715L258.247 224.717L258.38 224.14ZM263.21 226.31L262.86 226.787L262.869 226.794L262.878 226.8L263.21 226.31ZM266.71 230.16L267.226 229.871L267.226 229.871L266.71 230.16ZM265.66 242.83L266.106 243.219L266.106 243.219L265.66 242.83ZM259.43 246.75L259.255 246.185L258.838 246.314V246.75H259.43ZM259.43 246.89H258.838V247.414L259.359 247.477L259.43 246.89ZM263.7 248.22L263.421 248.742L263.432 248.747L263.443 248.753L263.7 248.22ZM267.13 250.81L266.683 251.198L266.692 251.208L267.13 250.81ZM269.3 254.45L268.745 254.654L268.749 254.665L268.753 254.676L269.3 254.45ZM268.53 265.65L269.036 265.956L269.04 265.951L268.53 265.65ZM264.26 269.99L264.572 270.493L264.576 270.49L264.26 269.99ZM258.24 272.3L258.122 271.72L258.119 271.721L258.24 272.3ZM233.53 273H232.938V273.592H233.53V273ZM242.35 243.6H241.758V244.192H242.35V243.6ZM256.98 241.92L257.342 242.388L257.344 242.386L256.98 241.92ZM256.91 232.61L256.565 233.09L256.573 233.097L256.582 233.102L256.91 232.61ZM242.35 231V230.408H241.758V231H242.35ZM242.35 265.44H241.758V266.032H242.35V265.44ZM254.04 265.23L253.977 264.642L253.975 264.642L254.04 265.23ZM257.61 264.25L257.865 264.784L257.865 264.784L257.61 264.25ZM260.27 262.08L260.743 262.435L260.751 262.424L260.27 262.08ZM258.73 252.7L258.421 253.205L258.428 253.209L258.73 252.7ZM242.35 251.16V250.568H241.758V251.16H242.35ZM233.53 224.032H252.85V222.848H233.53V224.032ZM252.85 224.032C254.667 224.032 256.461 224.259 258.233 224.713L258.527 223.567C256.659 223.088 254.767 222.848 252.85 222.848V224.032ZM258.247 224.717C259.995 225.12 261.53 225.811 262.86 226.787L263.56 225.833C262.09 224.755 260.405 224 258.513 223.563L258.247 224.717ZM262.878 226.8C264.245 227.726 265.35 228.939 266.194 230.449L267.226 229.871C266.297 228.207 265.068 226.854 263.542 225.82L262.878 226.8ZM266.194 230.449C267.021 231.929 267.448 233.738 267.448 235.9H268.632C268.632 233.582 268.173 231.565 267.226 229.871L266.194 230.449ZM267.448 235.9C267.448 238.581 266.692 240.746 265.214 242.441L266.106 243.219C267.801 241.274 268.632 238.819 268.632 235.9H267.448ZM265.214 242.441C263.708 244.169 261.729 245.42 259.255 246.185L259.605 247.315C262.264 246.493 264.439 245.131 266.106 243.219L265.214 242.441ZM258.838 246.75V246.89H260.022V246.75H258.838ZM259.359 247.477C260.829 247.656 262.182 248.078 263.421 248.742L263.979 247.698C262.605 246.962 261.111 246.498 259.501 246.303L259.359 247.477ZM263.443 248.753C264.728 249.373 265.806 250.189 266.684 251.198L267.576 250.422C266.588 249.285 265.379 248.373 263.957 247.687L263.443 248.753ZM266.692 251.208C267.57 252.174 268.255 253.32 268.745 254.654L269.856 254.246C269.318 252.78 268.556 251.499 267.568 250.412L266.692 251.208ZM268.753 254.676C269.281 255.952 269.548 257.344 269.548 258.86H270.732C270.732 257.202 270.439 255.655 269.847 254.224L268.753 254.676ZM269.548 258.86C269.548 261.49 269.027 263.643 268.02 265.349L269.04 265.951C270.18 264.017 270.732 261.643 270.732 258.86H269.548ZM268.024 265.344C266.999 267.038 265.641 268.418 263.944 269.49L264.576 270.49C266.426 269.322 267.915 267.809 269.036 265.956L268.024 265.344ZM263.948 269.488C262.289 270.519 260.35 271.266 258.122 271.72L258.358 272.88C260.704 272.401 262.778 271.608 264.572 270.492L263.948 269.488ZM258.119 271.721C255.92 272.179 253.674 272.408 251.38 272.408V273.592C253.753 273.592 256.08 273.354 258.361 272.879L258.119 271.721ZM251.38 272.408H233.53V273.592H251.38V272.408ZM234.122 273V223.44H232.938V273H234.122ZM242.35 244.192H250.4V243.008H242.35V244.192ZM250.4 244.192C253.397 244.192 255.746 243.624 257.342 242.388L256.618 241.452C255.321 242.456 253.283 243.008 250.4 243.008V244.192ZM257.344 242.386C258.979 241.109 259.812 239.422 259.812 237.37H258.628C258.628 239.051 257.968 240.397 256.616 241.454L257.344 242.386ZM259.812 237.37C259.812 235.062 258.971 233.273 257.238 232.118L256.582 233.102C257.929 234 258.628 235.384 258.628 237.37H259.812ZM257.255 232.13C255.607 230.945 253.025 230.408 249.63 230.408V231.592C252.955 231.592 255.226 232.128 256.565 233.09L257.255 232.13ZM249.63 230.408H242.35V231.592H249.63V230.408ZM241.758 231V243.6H242.942V231H241.758ZM242.35 266.032H250.47V264.848H242.35V266.032ZM250.47 266.032C251.614 266.032 252.826 265.96 254.105 265.818L253.975 264.642C252.734 264.78 251.566 264.848 250.47 264.848V266.032ZM254.103 265.818C255.469 265.672 256.725 265.329 257.865 264.784L257.355 263.716C256.348 264.198 255.224 264.508 253.977 264.642L254.103 265.818ZM257.865 264.784C259.023 264.23 259.985 263.446 260.743 262.435L259.797 261.725C259.155 262.58 258.344 263.243 257.355 263.716L257.865 264.784ZM260.751 262.424C261.545 261.313 261.912 259.874 261.912 258.16H260.728C260.728 259.713 260.395 260.887 259.789 261.736L260.751 262.424ZM261.912 258.16C261.912 255.41 260.993 253.357 259.032 252.191L258.428 253.209C259.921 254.096 260.728 255.684 260.728 258.16H261.912ZM259.039 252.195C257.217 251.082 254.445 250.568 250.82 250.568V251.752C254.381 251.752 256.883 252.265 258.421 253.205L259.039 252.195ZM250.82 250.568H242.35V251.752H250.82V250.568ZM241.758 251.16V265.44H242.942V251.16H241.758Z" fill="white"/>
</g>
<defs>
<filter id="filter0_f_107_38" x="147.729" y="134.6" width="205.741" height="232" filterUnits="userSpaceOnUse" color-interpolation-filters="sRGB">
<feFlood flood-opacity="0" result="BackgroundImageFix"/>
<feBlend mode="normal" in="SourceGraphic" in2="BackgroundImageFix" result="shape"/>
<feGaussianBlur stdDeviation="9" result="effect1_foregroundBlur_107_38"/>
</filter>
<filter id="filter1_f_107_38" x="159.729" y="146.6" width="181.741" height="208" filterUnits="userSpaceOnUse" color-interpolation-filters="sRGB">
<feFlood flood-opacity="0" result="BackgroundImageFix"/>
<feBlend mode="normal" in="SourceGraphic" in2="BackgroundImageFix" result="shape"/>
<feGaussianBlur stdDeviation="3" result="effect1_foregroundBlur_107_38"/>
</filter>
<filter id="filter2_ddi_107_38" x="157.929" y="150.8" width="185.341" height="211.6" filterUnits="userSpaceOnUse" color-interpolation-filters="sRGB">
<feFlood flood-opacity="0" result="BackgroundImageFix"/>
<feColorMatrix in="SourceAlpha" type="matrix" values="0 0 0 0 0 0 0 0 0 0 0 0 0 0 0 0 0 0 127 0" result="hardAlpha"/>
<feOffset dy="3.9"/>
<feGaussianBlur stdDeviation="1.5"/>
<feColorMatrix type="matrix" values="0 0 0 0 0 0 0 0 0 0.3 0 0 0 0 0.275 0 0 0 0.7 0"/>
<feBlend mode="multiply" in2="BackgroundImageFix" result="effect1_dropShadow_107_38"/>
<feColorMatrix in="SourceAlpha" type="matrix" values="0 0 0 0 0 0 0 0 0 0 0 0 0 0 0 0 0 0 127 0" result="hardAlpha"/>
<feOffset dy="6"/>
<feGaussianBlur stdDeviation="3.9"/>
<feColorMatrix type="matrix" values="0 0 0 0 0 0 0 0 0 0.6 0 0 0 0 0.6 0 0 0 1 0"/>
<feBlend mode="color-dodge" in2="effect1_dropShadow_107_38" result="effect2_dropShadow_107_38"/>
<feBlend mode="normal" in="SourceGraphic" in2="effect2_dropShadow_107_38" result="shape"/>
<feColorMatrix in="SourceAlpha" type="matrix" values="0 0 0 0 0 0 0 0 0 0 0 0 0 0 0 0 0 0 127 0" result="hardAlpha"/>
<feOffset dx="-0.39" dy="0.78"/>
<feGaussianBlur stdDeviation="0.195"/>
<feComposite in2="hardAlpha" operator="arithmetic" k2="-1" k3="1"/>
<feColorMatrix type="matrix" values="0 0 0 0 1 0 0 0 0 1 0 0 0 0 1 0 0 0 0.5 0"/>
<feBlend mode="normal" in2="shape" result="effect3_innerShadow_107_38"/>
</filter>
<filter id="filter3_f_107_38" x="165.129" y="152" width="170.941" height="197.2" filterUnits="userSpaceOnUse" color-interpolation-filters="sRGB">
<feFlood flood-opacity="0" result="BackgroundImageFix"/>
<feBlend mode="normal" in="SourceGraphic" in2="BackgroundImageFix" result="shape"/>
<feGaussianBlur stdDeviation="0.3" result="effect1_foregroundBlur_107_38"/>
</filter>
<filter id="filter4_f_107_38" x="165.329" y="152.2" width="170.541" height="196.8" filterUnits="userSpaceOnUse" color-interpolation-filters="sRGB">
<feFlood flood-opacity="0" result="BackgroundImageFix"/>
<feBlend mode="normal" in="SourceGraphic" in2="BackgroundImageFix" result="shape"/>
<feGaussianBlur stdDeviation="0.2" result="effect1_foregroundBlur_107_38"/>
</filter>
<filter id="filter5_f_107_38" x="224.655" y="214.565" width="54.3599" height="67.3101" filterUnits="userSpaceOnUse" color-interpolation-filters="sRGB">
<feFlood flood-opacity="0" result="BackgroundImageFix"/>
<feBlend mode="normal" in="SourceGraphic" in2="BackgroundImageFix" result="shape"/>
<feGaussianBlur stdDeviation="4.4375" result="effect1_foregroundBlur_107_38"/>
</filter>
<filter id="filter6_f_107_38" x="230.572" y="220.482" width="42.5265" height="55.4767" filterUnits="userSpaceOnUse" color-interpolation-filters="sRGB">
<feFlood flood-opacity="0" result="BackgroundImageFix"/>
<feBlend mode="normal" in="SourceGraphic" in2="BackgroundImageFix" result="shape"/>
<feGaussianBlur stdDeviation="1.47917" result="effect1_foregroundBlur_107_38"/>
</filter>
<filter id="filter7_ddi_107_38" x="229.684" y="222.552" width="44.3015" height="57.2517" filterUnits="userSpaceOnUse" color-interpolation-filters="sRGB">
<feFlood flood-opacity="0" result="BackgroundImageFix"/>
<feColorMatrix in="SourceAlpha" type="matrix" values="0 0 0 0 0 0 0 0 0 0 0 0 0 0 0 0 0 0 127 0" result="hardAlpha"/>
<feOffset dy="1.92292"/>
<feGaussianBlur stdDeviation="0.739583"/>
<feColorMatrix type="matrix" values="0 0 0 0 0 0 0 0 0 0.3 0 0 0 0 0.275 0 0 0 0.7 0"/>
<feBlend mode="multiply" in2="BackgroundImageFix" result="effect1_dropShadow_107_38"/>
<feColorMatrix in="SourceAlpha" type="matrix" values="0 0 0 0 0 0 0 0 0 0 0 0 0 0 0 0 0 0 127 0" result="hardAlpha"/>
<feOffset dy="2.95833"/>
<feGaussianBlur stdDeviation="1.92292"/>
<feColorMatrix type="matrix" values="0 0 0 0 0 0 0 0 0 0.6 0 0 0 0 0.6 0 0 0 1 0"/>
<feBlend mode="color-dodge" in2="effect1_dropShadow_107_38" result="effect2_dropShadow_107_38"/>
<feBlend mode="normal" in="SourceGraphic" in2="effect2_dropShadow_107_38" result="shape"/>
<feColorMatrix in="SourceAlpha" type="matrix" values="0 0 0 0 0 0 0 0 0 0 0 0 0 0 0 0 0 0 127 0" result="hardAlpha"/>
<feOffset dx="-0.192292" dy="0.384583"/>
<feGaussianBlur stdDeviation="0.0961458"/>
<feComposite in2="hardAlpha" operator="arithmetic" k2="-1" k3="1"/>
<feColorMatrix type="matrix" values="0 0 0 0 1 0 0 0 0 1 0 0 0 0 1 0 0 0 0.5 0"/>
<feBlend mode="normal" in2="shape" result="effect3_innerShadow_107_38"/>
</filter>
<filter id="filter8_f_107_38" x="233.234" y="223.144" width="37.2015" height="50.1517" filterUnits="userSpaceOnUse" color-interpolation-filters="sRGB">
<feFlood flood-opacity="0" result="BackgroundImageFix"/>
<feBlend mode="normal" in="SourceGraphic" in2="BackgroundImageFix" result="shape"/>
<feGaussianBlur stdDeviation="0.147917" result="effect1_foregroundBlur_107_38"/>
</filter>
<filter id="filter9_f_107_38" x="233.333" y="223.243" width="37.0043" height="49.9545" filterUnits="userSpaceOnUse" color-interpolation-filters="sRGB">
<feFlood flood-opacity="0" result="BackgroundImageFix"/>
<feBlend mode="normal" in="SourceGraphic" in2="BackgroundImageFix" result="shape"/>
<feGaussianBlur stdDeviation="0.0986111" result="effect1_foregroundBlur_107_38"/>
</filter>
</defs>
</svg>
