<svg width="501" height="501" viewBox="0 0 501 501" fill="none" xmlns="http://www.w3.org/2000/svg">
<rect width="501" height="501" fill="#ACBEFF"/>
<path d="M314.197 129.91C311.361 117.777 304.876 106.804 295.615 98.4694C266.345 69.5202 212.592 85.235 212.838 128.859C211.764 133.961 211.384 139.185 211.708 144.39C211.852 146.608 212.811 149.702 211.522 151.685C208.615 155.419 206.929 158.17 207.915 163.136C208.324 165.182 209.252 167.088 210.611 168.672C211.969 170.255 213.712 171.462 215.672 172.177C216.872 172.451 217.993 172.995 218.952 173.766C219.911 174.537 220.683 175.517 221.208 176.63C226.522 186.357 230.458 194.463 238.836 201.091C240.998 202.799 263.168 213.039 270.473 213.039C291.86 213.039 318.815 205.29 319.26 181.391C319.114 176.111 318.639 170.846 317.839 165.625C316.434 153.749 316.931 141.439 314.197 129.91Z" fill="#EDB98A"/>
<path d="M277.989 215.595C275.484 215.625 272.988 215.277 270.587 214.563C269.401 214.198 268.256 213.712 267.169 213.115C266.053 212.498 265.012 211.755 264.065 210.902C263.619 210.513 263.319 209.984 263.214 209.402C263.125 208.856 263.186 208.295 263.392 207.781C263.63 207.167 264.025 206.625 264.537 206.211C265.023 205.802 265.634 205.571 266.269 205.557C266.819 205.566 267.35 205.756 267.779 206.098C268.575 206.696 269.426 207.218 270.319 207.657C271.18 208.077 272.076 208.421 272.996 208.684C274.83 209.194 276.726 209.442 278.629 209.421C280.553 209.407 282.472 209.226 284.365 208.881C286.021 208.592 287.813 208.189 290.004 207.608L290.228 207.549C293.507 206.704 296.707 205.577 299.792 204.182C301.331 203.476 302.825 202.676 304.266 201.786C305.703 200.9 307.07 199.906 308.356 198.813C311.103 196.464 313.295 193.534 314.773 190.234C316.232 186.922 317.046 183.362 317.172 179.745C317.266 175.575 317.057 171.404 316.545 167.265L316.499 166.805C316.318 165.017 316.129 163.201 315.959 161.445C315.659 158.54 315.348 155.538 315.059 152.582C314.546 147.365 314.249 143.352 314.073 139.564L313.981 137.373C313.957 136.811 313.933 136.23 313.908 135.716C313.738 131.885 313.562 127.924 313.73 124.076C313.731 124.042 313.746 124.009 313.772 123.985C313.797 123.961 313.83 123.948 313.865 123.949C313.892 123.949 313.919 123.958 313.94 123.975C313.962 123.991 313.977 124.015 313.984 124.041C314.524 125.932 314.905 127.894 315.278 129.783C315.459 130.707 315.648 131.674 315.853 132.601C316.572 135.914 317.077 138.478 317.475 140.912C318.247 145.484 318.987 150.504 319.806 156.716L319.979 158.038C320.179 159.575 320.406 161.153 320.622 162.677C322.176 170.476 322.45 178.476 321.433 186.363C320.69 190.247 319.119 193.925 316.826 197.146C314.527 200.361 311.717 203.177 308.508 205.482C305.42 207.711 302.081 209.57 298.56 211.021C295.042 212.479 291.401 213.622 287.68 214.436C286.016 214.806 284.408 215.09 282.901 215.287C281.272 215.494 279.631 215.597 277.989 215.595V215.595ZM238.29 201.383C238.08 201.382 237.873 201.339 237.68 201.256C236.731 200.823 235.879 200.205 235.173 199.437C234.432 198.649 233.737 197.818 233.092 196.949V196.949C232.822 196.614 232.587 196.298 232.341 195.99L232.241 195.868C230.667 193.922 229.237 191.863 227.962 189.708L227.527 188.992C225.079 185.118 223.029 181.006 221.41 176.719C221.315 176.818 221.211 176.909 221.1 176.989C220.366 177.49 219.493 177.747 218.606 177.722C217.739 177.703 216.879 177.554 216.055 177.281C215.258 177.025 214.478 176.716 213.721 176.357C211.689 175.41 209.884 174.037 208.429 172.331C207.654 171.423 206.978 170.436 206.41 169.386C205.854 168.357 205.414 167.27 205.1 166.143C204.784 165.016 204.603 163.855 204.562 162.685C204.525 161.49 204.636 160.294 204.892 159.126C205.366 157.048 206.263 155.089 207.526 153.371C208.775 151.629 210.385 150.176 212.246 149.113C210.677 147.024 209.69 144.557 209.385 141.963C208.823 138.671 208.642 135.324 208.845 131.99C209.015 128.676 209.505 125.386 210.309 122.166C211.112 118.947 212.182 115.801 213.508 112.76C215.859 107.344 219.106 102.363 223.112 98.0262C225.108 95.8645 227.283 93.8759 229.615 92.0818C231.957 90.2842 234.451 88.694 237.069 87.329C247.735 81.7973 259.89 79.8187 271.759 81.6819C274.592 82.1297 277.38 82.8268 280.091 83.7651C282.796 84.7006 285.416 85.862 287.926 87.2372C290.43 88.6127 292.819 90.1886 295.069 91.9494C297.326 93.7144 299.438 95.656 301.386 97.756C303.318 99.8306 305.09 102.049 306.687 104.392C308.282 106.73 309.64 109.222 310.739 111.831C311.279 113.122 311.752 114.441 312.155 115.781C312.558 117.122 312.873 118.488 313.1 119.869C313.36 121.298 313.527 122.742 313.6 124.192C313.603 124.843 313.552 125.493 313.449 126.135C313.342 126.796 313.29 127.465 313.295 128.135C313.296 128.157 313.293 128.18 313.285 128.201C313.277 128.223 313.265 128.242 313.249 128.259C313.23 128.278 313.207 128.293 313.182 128.303C313.157 128.314 313.13 128.319 313.103 128.318C313.063 128.32 313.024 128.308 312.992 128.284C312.96 128.259 312.937 128.225 312.928 128.186C312.686 127.329 312.338 126.506 311.893 125.735C311.6 125.203 311.337 124.654 311.107 124.092C310.669 122.971 310.169 121.871 309.734 120.928L309.321 120.034C308.156 117.518 306.754 115.07 305.398 112.701L305.257 112.455C303.824 109.951 302.192 107.565 300.378 105.322C298.563 103.078 296.568 100.986 294.416 99.0638C290.631 95.6888 286.337 92.9322 281.693 90.8957C279.378 89.885 276.985 89.0645 274.536 88.4423C272.083 87.8167 269.58 87.4027 267.055 87.2047C265.769 87.1048 264.462 87.0534 263.17 87.0534C258.565 87.0527 253.981 87.6818 249.546 88.9232C245.102 90.1614 240.855 92.0188 236.929 94.4407C227.961 100.057 221.167 108.553 217.66 118.537C215.898 123.538 214.891 128.775 214.675 134.074C214.582 136.767 214.643 139.463 214.856 142.15L214.95 143.428C215.105 144.944 215.09 146.473 214.907 147.986C216.057 147.618 217.256 147.426 218.463 147.416C218.951 147.416 219.438 147.451 219.922 147.521C221.036 147.606 222.106 147.992 223.017 148.638C223.929 149.285 224.647 150.167 225.095 151.191C225.106 151.21 225.112 151.233 225.112 151.256C225.112 151.278 225.106 151.301 225.095 151.32C225.084 151.339 225.067 151.355 225.048 151.366C225.029 151.377 225.007 151.383 224.985 151.383C224.962 151.382 224.94 151.377 224.92 151.366C224.24 151.065 223.501 150.923 222.758 150.95C220.004 151.012 217.328 151.878 215.059 153.441C213.773 154.318 212.658 155.422 211.771 156.7C210.871 157.977 210.271 159.441 210.014 160.983C209.899 161.721 209.883 162.472 209.966 163.215C210.049 163.953 210.219 164.678 210.474 165.376C210.989 166.781 211.793 168.063 212.832 169.14C213.365 169.698 213.948 170.206 214.572 170.659C215.197 171.111 215.872 171.492 216.582 171.793C217.198 172.037 217.83 172.235 218.473 172.388C219.574 172.594 220.618 173.037 221.532 173.685C221.741 173.846 221.909 174.055 222.019 174.295C222.129 174.535 222.179 174.799 222.164 175.063C222.13 175.588 221.936 176.09 221.607 176.5C223.228 178.281 224.787 180.178 226.295 182.012C227.773 183.812 229.302 185.676 230.888 187.416C232.239 188.905 233.806 190.64 235.286 192.396L235.826 193.034C236.224 193.512 236.678 193.993 237.161 194.498C238.471 195.668 239.502 197.118 240.176 198.74C240.254 199.048 240.26 199.369 240.193 199.679C240.126 199.989 239.988 200.279 239.79 200.526C239.624 200.776 239.402 200.983 239.141 201.132C238.881 201.28 238.59 201.366 238.29 201.383ZM224.679 168.048C224.295 168.054 223.918 167.941 223.599 167.727C223.231 167.463 222.955 167.091 222.81 166.662L222.777 166.57C222.438 165.636 221.921 164.775 221.256 164.036C221.058 164.354 220.778 164.612 220.446 164.784C220.329 164.84 220.202 164.869 220.073 164.868C219.912 164.88 219.753 164.834 219.624 164.738C219.494 164.642 219.403 164.504 219.368 164.347C219.261 163.761 219.379 163.158 219.697 162.655L219.741 162.59C218.975 161.973 218.143 161.443 217.26 161.01C216.444 160.605 215.577 160.313 214.683 160.142C214.646 160.134 214.613 160.113 214.591 160.083C214.568 160.053 214.557 160.015 214.559 159.978C214.556 159.939 214.568 159.902 214.59 159.871C214.613 159.841 214.646 159.819 214.683 159.81C215.628 159.619 216.588 159.517 217.552 159.505C218.79 159.492 220.016 159.742 221.151 160.237C222.269 160.733 223.301 161.405 224.206 162.228C225.105 163.051 225.926 163.956 226.657 164.93C226.867 165.175 227 165.475 227.039 165.795C227.079 166.114 227.024 166.439 226.881 166.727C226.664 167.123 226.346 167.454 225.959 167.686C225.572 167.918 225.131 168.043 224.679 168.048V168.048Z" fill="black"/>
<path d="M354.616 287.787C353.606 285.012 355.081 282.246 355.9 279.562C358.807 270.254 350.858 246.776 345.298 246.433C343.266 241.17 337.839 238.987 333.57 235.955C328.723 232.929 324.011 229.451 318.981 226.798C318.882 226.244 318.626 225.729 318.243 225.316C317.86 224.903 317.366 224.609 316.821 224.468C316.276 224.328 315.702 224.347 315.167 224.523C314.632 224.7 314.159 225.026 313.804 225.463C308.701 222.288 302.584 222.877 297.113 220.797C292.958 214.074 292.645 207.017 291.545 200.532C291.064 197.706 291.575 194.977 289.654 192.458C283.154 183.323 257.539 179.367 248.083 184.774C242.998 181.602 242.877 187.349 242.069 190.894C241.13 192.712 240.704 194.753 240.837 196.795C238.43 201.829 236.387 208.122 231.332 211.88C224.913 216.649 215.036 218.462 208.779 220.797C207.888 219.874 207.256 218.734 206.944 217.49C197.172 219.481 187.904 223.433 179.703 229.108C170.468 231.81 163.968 239.324 159.265 247.382C158.789 248.126 158.615 249.023 158.776 249.892C144.316 271.103 137.416 296.493 136.446 322.138C127.144 327.72 140.863 377.885 144.067 388.302C146.14 391.971 148.493 402.444 153.677 401.636C157.233 405.659 162.901 404.878 167.726 405.178C167.043 408.321 167.23 411.591 168.267 414.635C168.507 415.429 169.002 416.122 169.675 416.607C170.347 417.092 171.161 417.343 171.99 417.32C172.819 417.297 173.618 417.003 174.263 416.481C174.909 415.96 175.365 415.241 175.561 414.435C223.624 423.779 272.941 416.327 321.545 417.726C335.594 417.826 349.642 418.267 363.67 419.264C364.687 419.259 365.662 418.852 366.382 418.132C367.101 417.412 367.507 416.437 367.511 415.419C364.496 383.33 361.668 341.114 358.296 309.344C357.803 302.052 356.57 294.83 354.616 287.787V287.787Z" fill="#EDB98A"/>
<path d="M295.579 421.004C267.457 421.004 235.669 420.504 210.543 419.669C197.991 419.25 187.551 418.761 180.346 418.25C176.545 417.98 173.592 417.71 171.576 417.44C169.466 417.151 168.353 416.856 168.261 416.567C167.737 414.718 167.43 412.813 167.348 410.893C167.197 408.983 167.324 407.062 167.726 405.189C166.824 405.132 165.87 405.111 164.949 405.092C162.906 405.114 160.866 404.933 158.859 404.551C157.891 404.343 156.956 404.003 156.079 403.541C155.17 403.054 154.355 402.408 153.675 401.633C153.488 401.662 153.299 401.677 153.11 401.676C151.532 401.676 150.092 400.62 148.709 398.434C147.521 396.39 146.515 394.244 145.705 392.022C145.232 390.749 144.686 389.505 144.067 388.296V388.296C143.219 385.532 141.766 380.417 140.223 374.348C138.305 366.799 136.74 359.758 135.576 353.403C134.244 346.8 133.47 340.097 133.261 333.365C133.19 330.94 133.428 328.517 133.969 326.153C134.182 325.286 134.516 324.454 134.963 323.681C135.323 323.051 135.833 322.52 136.446 322.132C136.879 309.329 138.931 296.633 142.552 284.345C144.371 278.244 146.634 272.283 149.322 266.512C152.024 260.724 155.186 255.163 158.778 249.881C158.625 249.058 158.774 248.207 159.197 247.484L159.259 247.379C160.438 245.346 161.734 243.384 163.141 241.502C164.545 239.623 166.097 237.86 167.783 236.231C169.455 234.617 171.296 233.188 173.273 231.967C175.28 230.736 177.442 229.776 179.7 229.111C183.763 226.238 188.133 223.828 192.73 221.924C197.324 220.02 202.08 218.537 206.941 217.492C206.955 217.557 206.971 217.627 206.993 217.706L206.809 218.122C205.796 220.208 205.202 222.473 205.061 224.788C205.182 225.765 205.442 226.721 205.834 227.625C206.51 229.368 207.294 231.068 208.179 232.715C210.808 237.649 214.021 242.248 217.748 246.414C222.378 251.676 227.911 256.068 234.085 259.384C237.513 261.195 241.14 262.602 244.892 263.575C246.892 264.09 248.922 264.48 250.971 264.742C253.14 265.017 255.323 265.154 257.509 265.153C259.181 265.153 260.894 265.072 262.599 264.915C265.765 264.634 268.913 264.183 272.031 263.564C274.897 262.99 277.724 262.235 280.495 261.302C283.067 260.435 285.572 259.379 287.99 258.144C290.273 256.975 292.456 255.619 294.517 254.091C296.512 252.605 298.372 250.947 300.077 249.135C301.777 247.322 303.314 245.363 304.67 243.28C306.062 241.133 307.274 238.873 308.293 236.525C309.366 234.044 310.254 231.486 310.949 228.873L311.303 224.209C312.174 224.552 313.012 224.973 313.807 225.466C314.464 224.816 315.347 224.448 316.271 224.439C316.92 224.43 317.552 224.644 318.062 225.044C318.324 225.262 318.54 225.529 318.697 225.831C318.855 226.132 318.951 226.462 318.981 226.801C322.304 228.549 325.532 230.689 328.653 232.745C330.274 233.812 331.927 234.907 333.578 235.944L333.875 236.152C334.78 236.779 335.745 237.382 336.68 237.965C338.452 239.008 340.139 240.189 341.724 241.5C342.49 242.16 343.184 242.899 343.796 243.704C344.424 244.536 344.933 245.451 345.309 246.423L346.103 246.474C346.734 246.554 347.323 246.831 347.786 247.266C348.451 247.853 349.035 248.526 349.521 249.268C350.83 251.293 351.91 253.458 352.739 255.723C353.778 258.452 354.622 261.251 355.265 264.099C355.919 266.902 356.337 269.754 356.516 272.626C356.713 274.955 356.507 277.301 355.908 279.56C355.743 280.1 355.548 280.654 355.367 281.181C354.354 283.224 354.094 285.558 354.632 287.774C355.622 290.923 356.368 294.145 356.861 297.409C357.383 300.665 357.742 304.005 358.093 307.236V307.296C358.164 307.958 358.239 308.647 358.312 309.314C360.266 327.742 362.049 349.793 363.772 371.117C365.053 386.948 366.261 401.901 367.525 415.378C367.541 415.867 367.448 416.354 367.252 416.802C367.056 417.25 366.763 417.649 366.393 417.969C365.654 418.672 364.705 419.111 363.691 419.22C357.237 419.812 347.689 420.263 335.323 420.571C323.979 420.866 310.614 421.004 295.579 421.004ZM321.909 284.207C312.538 285.061 303.257 286.713 294.166 289.144C291.581 289.762 289.047 290.574 286.585 291.576C284.812 292.298 283.096 293.153 281.452 294.132C280.072 294.919 278.792 295.869 277.639 296.961L263.753 312.249L260.241 314.526C260.241 314.597 260.241 321.741 261.051 329.528C261.293 331.555 261.785 333.544 262.515 335.451C263.204 337.288 264.017 339.078 264.947 340.806C265.93 342.664 267.026 344.459 268.229 346.183H268.265C270.191 345.642 287.195 340.998 290.651 340.341C293.404 339.82 295.744 336.288 297.448 333.692C298.026 332.813 298.529 332.057 298.959 331.53C299.75 330.77 300.74 330.249 301.814 330.028C303.114 329.641 304.686 329.339 306.353 329.017C308.377 328.668 310.38 328.205 312.351 327.628C313.559 327.229 314.662 326.562 315.577 325.677C316.42 324.868 317.152 323.949 317.752 322.946C318.422 321.85 318.966 320.681 319.373 319.463C319.464 319.444 330.45 317.069 333.962 316.285C334.843 316.088 335.361 315.721 335.502 315.205C335.546 314.854 335.511 314.498 335.399 314.162C335.288 313.827 335.102 313.521 334.856 313.267C334.588 312.906 334.289 312.568 333.962 312.259L306.431 311.295L306.534 311.273C309.301 310.684 323.26 307.723 326.443 307.285C329.12 306.818 331.745 306.087 334.278 305.102C335.547 304.64 336.769 304.057 337.925 303.359C338.944 302.705 339.462 302.105 339.462 301.57C339.462 301.035 338.741 300.66 337.317 300.333C335.565 299.985 333.79 299.767 332.006 299.679C328.042 299.409 323.228 299.376 318.616 299.376H316.841C309.368 299.376 292.688 300.784 292.526 300.797L298.956 297.717C299.175 297.674 320.759 293.499 323.62 293.499C324.301 293.493 324.96 293.254 325.487 292.821C325.998 292.403 326.431 291.897 326.764 291.327C327.174 290.648 327.498 289.923 327.732 289.165C327.473 288.597 327.178 288.047 326.848 287.517C326.206 286.434 325.384 285.468 324.417 284.661C323.639 284.28 322.771 284.122 321.909 284.207Z" fill="#FFCF77"/>
<path d="M306.594 285.175L320.721 253.156C320.721 253.156 322.855 247.714 326.481 247.714C330.106 247.714 362.973 248.744 362.973 248.744C362.973 248.744 369.686 249.606 367.525 253.156C365.364 256.706 333.059 322.805 333.059 322.805H319.362V319.466L334.61 315.199C334.61 315.199 337.385 312.251 333.059 312.251C328.734 312.251 303.557 311.287 303.557 311.287L327.564 307.774L339.452 303.205L337.704 300.803L327.575 299.355L294.579 300.792L303.557 297.755L323.617 293.494C323.617 293.494 327.561 290.714 327.561 287.987C327.561 285.261 316.992 284.205 316.992 284.205L306.594 285.175Z" fill="white"/>
<path d="M368.271 419.882C368.05 419.885 367.832 419.838 367.632 419.745C367.432 419.651 367.256 419.514 367.117 419.342C366.161 418.313 365.622 416.964 365.607 415.559C365.561 414.816 365.537 414.06 365.512 413.327C365.496 412.836 365.48 412.328 365.455 411.828C365.339 409.237 365.185 406.518 364.999 403.752C364.626 398.175 364.207 392.749 363.756 387.623C362.781 376.583 361.265 365.408 359.801 354.6C358.766 346.975 357.696 339.087 356.829 331.316C355.748 321.662 355.003 312.078 354.616 302.835C354.419 298.152 354.346 293.351 354.392 288.566C354.408 286.944 354.481 285.199 354.616 283.253C351.472 290.4 348.132 297.555 344.685 304.518L343.874 306.177C341.735 310.643 339.369 314.996 336.785 319.22L336.331 319.93L335.983 320.49C335.447 321.403 334.846 322.277 334.186 323.105C333.601 323.901 332.788 324.502 331.854 324.826C331.276 324.971 330.681 325.038 330.085 325.024C329.585 325.024 329.077 324.994 328.585 324.964C328.188 324.94 327.813 324.918 327.451 324.91L326.243 324.891C325.281 324.878 324.284 324.861 323.304 324.824C321.776 324.771 320.258 324.546 318.781 324.153C318.543 324.093 318.31 324.015 318.084 323.921C317.307 325.166 316.315 326.264 315.155 327.164C314.007 328.065 312.742 328.808 311.395 329.371C309.281 330.209 307.108 330.89 304.894 331.408L304.116 331.603C303.778 331.687 303.427 331.768 303.087 331.843C302.035 331.918 301.011 332.215 300.084 332.717C299.156 333.218 298.346 333.912 297.708 334.751L297.397 335.291C296.529 336.986 295.308 338.476 293.817 339.66C292.929 340.303 291.973 340.846 290.967 341.281C289.961 341.719 288.93 342.096 287.879 342.408C286.158 342.935 284.367 343.367 282.651 343.786H282.624L281.403 344.083L280.814 344.229L279.414 344.572C278.469 344.802 277.491 345.04 276.537 345.302C275.883 345.48 275.297 345.645 274.719 345.842C274.084 346.086 273.493 346.43 272.968 346.861C272.713 347.672 272.15 348.351 271.401 348.752C270.649 349.184 269.799 349.414 268.932 349.42C268.829 349.42 268.729 349.42 268.629 349.42C267.75 349.35 266.901 349.066 266.157 348.593C265.309 349.314 264.396 349.995 263.512 350.655C263.048 351.001 262.567 351.357 262.107 351.714C260.13 353.246 258.303 354.643 256.523 355.983C252.389 359.098 248.575 361.911 244.854 364.575C238.197 369.344 231.022 374.173 223.511 378.926C220.809 380.631 217.632 382.641 214.382 384.613L214.709 384.735L215.36 384.981C216.164 385.256 216.919 385.658 217.597 386.17C218.283 386.681 218.75 387.433 218.905 388.275C218.968 388.571 218.97 388.878 218.911 389.175C218.851 389.472 218.732 389.755 218.559 390.004C218.361 390.248 218.115 390.45 217.836 390.595C217.557 390.741 217.251 390.827 216.938 390.85C216.811 390.865 216.684 390.873 216.557 390.874C215.834 390.859 215.133 390.624 214.547 390.201C213.952 389.782 213.408 389.295 212.926 388.75C212.731 388.542 212.526 388.334 212.329 388.137C212.058 387.867 211.772 387.577 211.518 387.283C211.342 387.069 211.195 386.833 211.08 386.58C207.73 388.556 204.721 390.231 201.878 391.714L201.1 392.114C197.75 393.827 194.384 395.643 191.128 397.399C186.889 399.685 182.505 402.049 178.103 404.219C175.832 405.369 173.462 406.313 171.022 407.04C171.574 409.646 171.805 412.31 171.711 414.973V415.3C171.72 415.551 171.678 415.802 171.588 416.037C171.498 416.272 171.362 416.486 171.187 416.667C170.775 417.06 170.225 417.275 169.655 417.264C169.375 417.27 169.096 417.22 168.834 417.117C168.573 417.014 168.335 416.86 168.134 416.664C167.964 416.482 167.833 416.267 167.75 416.033C167.666 415.798 167.631 415.548 167.648 415.3L167.691 414.038C167.713 411.891 167.948 409.751 168.394 407.651C167.034 407.872 165.659 407.981 164.282 407.977C161.555 407.958 158.842 407.601 156.204 406.916C154.679 406.56 153.199 406.034 151.792 405.348C150.224 404.331 148.822 403.078 147.636 401.633C146.39 400.185 145.293 398.616 144.362 396.948C143.429 395.28 142.581 393.567 141.82 391.814C140.155 388.072 138.712 384.234 137.497 380.323C136.343 376.621 135.3 372.625 134.395 368.434C132.814 361.081 131.783 353.621 131.313 346.115C130.842 338.59 130.903 331.041 131.494 323.524C132.683 308.493 135.916 293.695 141.104 279.538C143.682 272.499 146.723 265.639 150.208 259.003L150.641 258.192C152.681 254.35 154.456 251.27 156.231 248.498C158.218 245.342 160.446 242.344 162.893 239.53C165.446 236.65 168.291 234.043 171.382 231.751C174.474 229.462 177.754 227.437 181.186 225.698C184.539 223.996 187.987 222.491 191.515 221.189C192.012 221.002 192.555 220.818 193.222 220.608C195.079 219.391 197.046 218.35 199.096 217.498C200.131 217.077 201.198 216.74 202.286 216.49C203.358 216.243 204.453 216.116 205.553 216.109H205.809C206.082 216.111 206.343 216.216 206.542 216.403C206.759 216.44 206.975 216.489 207.187 216.549C207.449 216.621 207.679 216.777 207.844 216.993C208.008 217.209 208.097 217.472 208.098 217.744L208.073 217.922C208.062 218.008 208.043 218.093 208.017 218.176C208.176 218.2 208.334 218.238 208.487 218.289C211.302 217.495 214.123 216.398 216.862 215.355C218.264 214.815 219.712 214.258 221.131 213.75L222.079 213.415L222.33 213.331L222.465 213.285C225.905 212.311 229.138 210.715 232.002 208.576C234.81 206.127 237.043 203.087 238.54 199.675C239.612 197.183 240.501 194.617 241.202 191.996C241.71 190.267 242.234 188.484 242.866 186.754C242.891 186.68 242.939 186.616 243.003 186.57C243.067 186.525 243.144 186.5 243.223 186.5C243.269 186.499 243.315 186.507 243.359 186.524C243.402 186.541 243.441 186.567 243.474 186.6C243.507 186.633 243.533 186.672 243.55 186.716C243.567 186.759 243.575 186.805 243.574 186.852C243.718 191.642 243.101 196.424 241.745 201.021C241.05 203.324 240.08 205.535 238.857 207.606C237.654 209.633 236.127 211.448 234.337 212.98C230.983 215.466 227.21 217.331 223.198 218.484C222.555 218.711 221.893 218.946 221.242 219.184L220.734 219.37L212.788 222.342C212.491 222.453 212.183 222.575 211.886 222.694C210.743 223.236 209.512 223.567 208.252 223.672C207.655 223.682 207.067 223.526 206.552 223.223C207.001 224.339 207.436 225.482 207.857 226.587C208.817 229.249 209.918 231.857 211.156 234.401C212.286 236.627 213.556 238.778 214.957 240.843C216.362 242.906 217.906 244.869 219.58 246.72C222.081 249.484 224.898 251.944 227.974 254.05C231.005 256.114 234.25 257.843 237.654 259.206C241.057 260.567 244.587 261.589 248.191 262.256C251.821 262.926 255.506 263.262 259.198 263.259C263.889 263.257 268.565 262.731 273.138 261.689C275.601 261.135 278.031 260.443 280.417 259.616C282.787 258.794 285.096 257.805 287.328 256.658C289.548 255.515 291.665 254.181 293.655 252.672C295.661 251.147 297.505 249.42 299.159 247.52C300.431 246.045 301.569 244.46 302.56 242.783C303.56 241.091 304.425 239.322 305.145 237.492C305.869 235.655 306.458 233.768 306.907 231.845C307.354 229.934 307.665 227.994 307.839 226.039C307.75 226.053 307.659 226.06 307.569 226.06C307.449 226.061 307.329 226.048 307.212 226.022C304.75 225.362 302.406 224.323 300.264 222.942L300.061 222.821C297.925 221.666 296.02 220.127 294.441 218.281C293.521 216.816 292.836 215.216 292.41 213.539C291.869 211.794 291.469 210.232 291.467 210.216C290.98 207.143 290.734 204.037 290.729 200.926C290.729 200.789 291.113 200.683 291.44 200.683C291.648 200.683 291.788 200.726 291.823 200.805C292.372 202.35 292.75 203.951 292.95 205.579C293.123 206.818 293.381 208.043 293.723 209.246L293.863 209.659C293.996 210.043 294.133 210.435 294.255 210.848C294.56 211.791 294.876 212.767 295.276 213.691C295.648 214.602 296.161 215.45 296.797 216.201C299.456 218.765 302.675 220.676 306.199 221.783V221.783C306.794 222.024 307.412 222.272 308.004 222.521C308.024 222.125 308.128 221.739 308.309 221.387C308.489 221.035 308.743 220.725 309.052 220.478C309.641 220.027 310.364 219.788 311.105 219.797C311.523 219.789 311.938 219.863 312.326 220.016C312.715 220.168 313.069 220.396 313.369 220.686C313.632 220.963 313.835 221.29 313.967 221.648C314.099 222.005 314.156 222.386 314.137 222.767C314.137 222.926 314.137 223.085 314.121 223.239V223.396C314.601 223.666 315.066 223.966 315.458 224.231L315.869 224.501C317.406 225.568 318.998 226.554 320.637 227.457C322.688 228.57 324.852 229.551 326.945 230.5C328.115 231.04 329.323 231.58 330.501 232.143C332.15 232.933 333.757 233.81 335.315 234.769C336.872 235.73 338.374 236.777 339.814 237.906C341.174 238.972 342.477 240.11 343.715 241.316L344.05 241.648C344.239 241.837 344.436 242.026 344.642 242.226C345.775 243.198 346.717 244.373 347.419 245.69C347.57 246.036 348.305 246.82 348.71 246.847C355.546 247.295 361.641 247.901 367.352 248.698C367.686 248.702 368.015 248.785 368.312 248.938C368.61 249.091 368.867 249.311 369.065 249.581C369.173 249.819 369.223 250.08 369.21 250.341C369.198 250.602 369.124 250.856 368.995 251.083C366.971 255.653 358.955 274.104 356.875 278.936C357.002 280.784 356.975 282.829 356.951 284.81C356.926 286.701 356.902 288.657 357.01 290.425C357.326 295.537 357.753 300.857 358.274 306.242C359.704 320.944 361.743 335.829 363.718 350.225C364.259 354.254 364.842 358.423 365.393 362.549C366.687 372.225 367.895 382.165 368.924 390.723C369.524 395.721 370.005 400.39 370.351 404.994C370.508 407.013 370.651 409.02 370.772 410.96L370.88 412.725C370.897 412.955 370.913 413.19 370.932 413.414C371.324 415.317 370.989 417.298 369.994 418.966C369.796 419.24 369.537 419.465 369.238 419.624C368.94 419.782 368.609 419.871 368.271 419.882V419.882ZM136.9 355.289C137.575 360.363 138.502 365.416 139.658 370.306L139.928 371.387C140.815 375.075 141.62 378.08 142.463 380.844C143.398 383.97 144.504 387.043 145.778 390.047C147.021 392.995 148.691 395.743 150.735 398.204C151.741 399.383 152.864 400.456 154.085 401.409C155.045 402.09 156.099 402.626 157.214 403C158.956 403.634 160.793 403.965 162.647 403.981C165.109 404.138 167.576 403.769 169.885 402.9H169.909C173.228 401.653 176.443 400.148 179.527 398.399C180.238 398.021 180.975 397.626 181.689 397.251L182.083 397.045C183.68 396.218 185.325 395.348 187.143 394.384C187.035 393.573 187.072 392.749 187.254 391.952C187.454 391.137 187.771 390.355 188.194 389.631C188.338 389.35 188.556 389.114 188.825 388.95C189.094 388.785 189.403 388.698 189.718 388.699C190.203 388.706 190.67 388.885 191.037 389.204C191.429 389.539 191.678 390.012 191.731 390.525V390.593C191.763 390.996 191.821 391.397 191.906 391.793C202.5 385.986 213.323 379.563 224.994 372.157C232.056 367.675 239.016 363.073 245.678 358.477C249.123 356.099 252.524 353.686 255.788 351.306C257.544 350.025 259.3 348.725 261.011 347.447C261.381 347.177 261.753 346.883 262.113 346.602C262.472 346.321 262.81 346.061 263.164 345.791C262.985 345.567 262.813 345.345 262.65 345.134C261.306 343.361 260.182 341.431 259.303 339.387C258.422 337.343 257.759 335.212 257.325 333.03C256.815 330.382 256.527 327.697 256.466 325.002L256.431 323.837C256.323 321.862 256.422 319.88 256.726 317.925L256.185 318.215C255.869 318.385 255.545 318.563 255.223 318.755C253.232 319.884 251.468 320.879 249.82 321.8C246.637 323.586 242.858 325.688 238.938 327.744C231.44 331.676 225.108 334.729 219.01 337.358L215.708 338.782C210.024 341.324 204.208 343.561 198.285 345.483C194.938 346.513 189.945 347.782 186.481 348.585C186.915 349.01 187.315 349.468 187.678 349.955C187.983 350.356 188.241 350.791 188.446 351.252C188.644 351.664 188.721 352.124 188.67 352.578C188.613 352.854 188.486 353.109 188.301 353.321C188.116 353.532 187.879 353.691 187.613 353.784C187.3 353.928 186.959 354.003 186.614 354.005C185.976 353.983 185.362 353.759 184.86 353.365C184.319 352.958 183.84 352.473 183.439 351.927C182.877 351.202 182.423 350.399 182.088 349.544C180.532 349.871 176.08 350.66 176.037 350.668C171.761 351.541 167.647 353.071 163.841 355.205C163.644 355.324 163.42 355.393 163.19 355.405C163.08 355.413 162.971 355.384 162.879 355.323C162.788 355.261 162.72 355.17 162.688 355.064C162.574 354.702 162.796 354.07 163.552 353.54C165.609 352.128 167.822 350.956 170.147 350.049C172.507 349.125 174.918 348.336 177.369 347.688L177.612 347.62C179.379 347.137 181.202 346.615 183.034 346.072C182.823 345.33 182.726 344.56 182.745 343.789C182.777 342.63 182.856 341.449 182.931 340.309C182.975 339.649 183.021 338.958 183.056 338.296C183.253 334.589 183.504 330.827 183.823 326.801C183.947 325.229 184.077 323.778 184.22 322.367C183.896 322.195 183.585 322 183.283 321.811C182.681 321.4 182.029 321.067 181.343 320.822L181.162 320.768C180.952 320.73 180.764 320.616 180.634 320.447C180.504 320.278 180.442 320.067 180.459 319.855C180.48 319.601 180.587 319.363 180.762 319.179C180.937 318.995 181.169 318.876 181.421 318.841C181.746 318.802 182.072 318.782 182.399 318.782C183.001 318.784 183.6 318.849 184.188 318.976C184.334 319.009 184.458 319.041 184.59 319.082C184.771 317.615 184.955 316.274 185.158 314.988C185.263 314.307 185.366 313.608 185.466 312.929C185.808 309.963 186.416 307.033 187.281 304.175C187.307 304.105 187.353 304.045 187.414 304.002C187.475 303.959 187.547 303.935 187.622 303.934C187.677 303.933 187.733 303.947 187.78 303.976C187.828 304.005 187.867 304.047 187.892 304.097C188.645 305.604 189.143 307.227 189.364 308.898C189.594 310.586 189.738 312.284 189.794 313.986V313.986C189.807 314.28 189.823 314.583 189.84 314.878L189.864 315.307C190.061 318.758 190.115 322.511 190.029 327.12C189.959 330.93 189.829 334.897 189.634 339.252C189.618 339.606 189.607 339.966 189.594 340.311C189.58 341.589 189.477 342.864 189.286 344.127C194.4 342.462 199.442 340.638 204.264 338.706C209.259 336.704 214.15 334.537 218.802 332.259C225.521 328.968 232.224 325.523 238.724 322.019C240.202 321.222 241.696 320.419 243.163 319.641C244.944 318.69 246.783 317.707 248.588 316.728L252.044 314.837L253.77 313.897L254.31 313.594C254.969 313.208 255.653 312.864 256.355 312.565C257.072 312.267 257.836 312.101 258.611 312.073H258.668C258.928 312.077 259.184 312.137 259.419 312.248C259.655 312.359 259.864 312.518 260.033 312.716C261.007 311.993 262.183 311.591 263.396 311.568H263.439C265.601 308.566 267.414 306.164 269.113 304.002L270.553 302.17C272.944 298.907 275.736 295.958 278.863 293.391C280.277 292.347 281.821 291.491 283.456 290.846C283.051 290.745 282.679 290.541 282.376 290.254C281.696 289.57 281.212 288.715 280.976 287.779C280.72 286.819 280.533 285.841 280.417 284.853C280.382 284.607 280.347 284.372 280.311 284.145C280.155 283.147 280.094 282.137 280.128 281.127C280.167 280.116 280.269 279.109 280.433 278.112C280.485 277.898 280.611 277.71 280.789 277.581C280.966 277.451 281.184 277.388 281.403 277.404C281.57 277.394 281.735 277.434 281.88 277.518C282.024 277.602 282.14 277.727 282.213 277.876C282.443 278.398 282.681 278.919 282.908 279.425C283.364 280.43 283.837 281.467 284.259 282.521L284.442 282.999C284.675 283.581 284.937 284.15 285.229 284.704V284.704C285.956 285.875 286.376 287.211 286.45 288.587C286.426 289.075 286.26 289.544 285.972 289.938C286.925 289.622 287.903 289.325 288.846 289.036L290.083 288.657C293.969 287.455 298.497 286.085 303.052 285.01C304.221 284.74 305.402 284.469 306.564 284.248C307.201 281.314 308.061 278.434 309.136 275.631C308.476 275.253 307.88 274.772 307.372 274.207C307.134 273.969 306.888 273.723 306.623 273.491C306.097 272.998 305.619 272.455 305.197 271.87C304.997 271.6 304.789 271.33 304.57 271.081C304.408 270.882 304.304 270.642 304.271 270.387C304.238 270.133 304.277 269.874 304.384 269.641C304.468 269.451 304.607 269.291 304.782 269.18C304.958 269.07 305.162 269.014 305.37 269.019H305.424H305.743C306.9 269.014 308.045 269.26 309.098 269.741L309.476 269.935C310.028 270.21 310.559 270.524 311.065 270.876C311.654 269.525 312.3 268.09 313.102 266.366L314.002 264.442L314.682 262.978L314.728 262.945C316.742 258.352 319.04 253.89 321.61 249.584C322.196 248.6 322.985 247.753 323.925 247.098C324.879 246.463 325.983 246.091 327.126 246.017C327.764 245.966 328.442 245.942 329.193 245.942C330.406 245.942 331.646 246.006 332.843 246.071C333.521 246.106 334.224 246.144 334.907 246.169C338.106 246.282 341.019 246.409 343.823 246.558C343.48 246.198 343.145 245.815 342.821 245.442C342.429 244.993 342.024 244.528 341.605 244.11C340.337 242.838 338.995 241.642 337.587 240.527C334.782 238.352 331.753 236.483 328.55 234.953C327.74 234.55 326.891 234.142 326.078 233.775C323.672 232.706 321.34 231.48 319.097 230.102C317.208 228.851 315.483 227.367 313.964 225.685C313.72 228.291 313.228 230.868 312.494 233.38C311.762 235.881 310.805 238.311 309.636 240.64C308.464 242.972 307.095 245.198 305.543 247.295C303.977 249.408 302.239 251.386 300.345 253.21C296.338 256.984 291.695 260.018 286.631 262.172C281.583 264.351 276.284 265.894 270.856 266.766C267.043 267.403 263.185 267.726 259.319 267.73C255.73 267.734 252.147 267.441 248.607 266.852C245.063 266.262 241.581 265.351 238.203 264.129C235.507 263.145 232.888 261.962 230.368 260.589C227.832 259.209 225.404 257.638 223.106 255.89C223.064 256.195 222.987 256.493 222.876 256.779C222.717 257.143 222.522 257.491 222.295 257.817L221.895 258.403C221.666 258.736 221.398 259.122 221.098 259.484C220.763 259.873 220.345 260.182 219.875 260.387C219.404 260.593 218.893 260.689 218.38 260.67H218.362C217.87 260.67 217.386 260.55 216.951 260.322C216.528 260.101 216.159 259.79 215.871 259.411C215.577 259.033 215.376 258.593 215.282 258.124C215.188 257.655 215.205 257.17 215.33 256.709C215.474 256.146 215.752 255.625 216.141 255.193C216.537 254.778 217.019 254.453 217.554 254.242C217.918 254.088 218.299 253.956 218.656 253.834L218.926 253.74C219.295 253.605 219.673 253.497 220.058 253.418C217.884 251.506 215.878 249.411 214.06 247.157C212.576 245.313 211.201 243.383 209.943 241.378C208.632 239.301 207.497 237.118 206.547 234.853C204.542 230.459 203.9 225.565 204.702 220.802C204.721 220.726 204.764 220.657 204.824 220.605C204.884 220.553 204.958 220.521 205.037 220.513C205.152 219.851 205.482 219.245 205.977 218.789C205.656 218.705 205.33 218.64 205.002 218.595C204.021 218.814 203.043 219.005 202.3 219.135C201.468 219.581 200.628 220.04 199.817 220.486C197.296 221.859 194.684 223.28 192.015 224.52C188.249 226.212 184.571 228.091 180.994 230.151C179.214 231.2 177.49 232.342 175.829 233.572C174.19 234.787 172.616 236.088 171.114 237.468C169.613 238.851 168.184 240.309 166.832 241.837C165.481 243.356 164.184 244.985 162.958 246.677C158.716 252.568 154.988 258.812 151.816 265.342C148.647 271.87 145.925 278.605 143.668 285.501C142.522 288.976 141.474 292.556 140.555 296.147C142.22 294.706 144.156 293.612 146.25 292.932C146.433 292.866 146.626 292.833 146.821 292.835C147.211 292.848 147.593 292.958 147.932 293.153C148.27 293.349 148.556 293.624 148.763 293.956C148.977 294.291 149.083 294.683 149.066 295.08C149.061 295.564 148.902 296.034 148.61 296.421C148.318 296.807 147.909 297.089 147.445 297.225C145.558 297.621 143.702 298.148 141.89 298.803H141.866L140.69 299.195C140.569 299.236 140.443 299.257 140.315 299.257C140.146 299.258 139.981 299.216 139.834 299.133C137.62 308.473 136.254 317.994 135.752 327.58C135.344 335.717 135.592 343.873 136.492 351.971C137.172 351.642 137.882 351.382 138.613 351.192C139.548 350.976 140.504 350.706 141.517 350.382C141.744 350.305 141.982 350.265 142.222 350.263C142.491 350.263 142.756 350.321 143.001 350.432C143.245 350.542 143.463 350.704 143.641 350.906C144.001 351.31 144.228 351.816 144.289 352.354C144.36 352.855 144.265 353.366 144.019 353.808C143.876 354.042 143.688 354.245 143.464 354.404C143.241 354.563 142.987 354.674 142.719 354.732C141.609 355.002 140.558 355.21 139.542 355.364C139.192 355.415 138.839 355.441 138.486 355.44C137.954 355.433 137.423 355.382 136.9 355.289V355.289ZM319.519 286.204C315.673 286.243 311.842 286.675 308.085 287.493C304.122 288.303 300.226 289.427 296.938 290.411L295.268 290.911C291.845 291.943 288.981 292.837 286.139 293.861C282.862 295.056 279.923 297.027 277.575 299.606C276.745 300.481 275.91 301.373 275.105 302.235C273.236 304.237 271.304 306.307 269.31 308.263C267.689 309.857 265.901 311.565 263.855 313.481C263.414 314.044 263.083 314.686 262.88 315.372C262.563 316.608 262.512 317.897 262.729 319.155C262.888 320.584 262.999 322.043 263.099 323.454C263.237 325.323 263.369 327.258 263.639 329.144C263.982 332.268 264.757 335.329 265.941 338.239C266.455 339.381 267.095 340.462 267.849 341.462L268.451 342.246C268.702 342.57 268.991 342.951 269.316 343.311C269.508 343.057 269.756 342.85 270.04 342.705C270.324 342.56 270.637 342.48 270.955 342.473C271.033 342.473 271.111 342.477 271.188 342.487C271.757 342.557 272.33 342.594 272.903 342.597C273.835 342.594 274.762 342.481 275.667 342.26C276.478 342.068 277.307 341.852 278.099 341.644L279.336 341.325C280.009 341.152 280.687 340.984 281.344 340.822C283.056 340.398 284.826 339.957 286.544 339.449L286.952 339.325C287.846 339.061 288.722 338.74 289.576 338.366C290.429 337.994 291.234 337.52 291.975 336.956C292.945 336.123 293.733 335.098 294.287 333.946C294.643 333.288 295.044 332.656 295.487 332.054C296.56 330.752 298.002 329.806 299.623 329.339C301.323 328.82 303.062 328.442 304.824 328.209C305.969 328.025 307.05 327.85 308.028 327.612C309.703 327.224 311.333 326.662 312.891 325.934C314.418 325.226 315.803 324.245 316.976 323.038L317.111 322.892C317.054 322.674 317.069 322.444 317.154 322.235C317.238 322.027 317.388 321.851 317.581 321.735L317.671 321.687C317.815 321.606 317.978 321.564 318.143 321.565H318.165C318.387 321.243 318.593 320.911 318.781 320.568C318.8 320.528 318.829 320.493 318.867 320.469C318.904 320.444 318.947 320.431 318.992 320.43C319.034 320.431 319.075 320.442 319.113 320.46C319.151 320.479 319.184 320.505 319.211 320.538C319.238 320.571 319.259 320.609 319.27 320.65C319.281 320.691 319.283 320.734 319.275 320.776C319.248 320.919 319.216 321.062 319.181 321.2L319.162 321.276C320.828 320.907 322.533 320.746 324.238 320.798H325.257H326.2H329.172C329.623 320.801 330.074 320.781 330.523 320.735L330.593 320.703L330.655 320.676H330.668C330.668 320.676 330.647 320.676 330.641 320.676C330.636 320.676 330.641 320.633 330.677 320.592C330.812 320.414 330.947 320.225 331.098 320.017C331.528 319.417 331.965 318.763 332.516 317.896C327.492 319.107 322.401 320.016 317.268 320.619C314.296 321.003 311.594 321.287 309.031 321.487C306.099 321.711 303.392 321.822 300.755 321.824C300.598 321.83 300.441 321.802 300.296 321.742C300.15 321.682 300.019 321.591 299.912 321.476C299.725 321.261 299.622 320.985 299.621 320.7C299.61 320.402 299.705 320.11 299.891 319.876C299.996 319.751 300.128 319.65 300.276 319.581C300.424 319.511 300.586 319.475 300.75 319.474C306.296 319.263 312.248 318.96 318.192 318.193C321.096 317.817 324.109 317.334 327.145 316.75C328.277 316.534 329.431 316.299 330.577 316.053L331.43 315.866C331.541 315.842 331.7 315.815 331.871 315.785C332.69 315.693 333.486 315.455 334.221 315.083L334.294 314.956L334.656 314.334C334.632 314.032 334.343 313.816 333.8 313.691C333.323 313.599 332.837 313.558 332.352 313.57H331.363H328.972H327.397H326.192C323.806 313.57 321.377 313.551 319.032 313.532H318.511C316.998 313.532 315.458 313.497 313.967 313.475C311.757 313.443 309.474 313.408 307.228 313.408C304.813 313.408 302.698 313.448 300.744 313.532H300.688C300.333 313.506 299.998 313.361 299.737 313.12C299.476 312.879 299.304 312.556 299.25 312.205C299.168 311.907 299.196 311.589 299.329 311.31C299.462 311.03 299.691 310.808 299.974 310.684C305.648 308.582 311.592 307.299 317.627 306.874V306.874L319.859 306.604C323.383 306.223 326.88 305.62 330.328 304.799L331.179 304.583C333.438 304.132 335.594 303.268 337.539 302.035C336.4 301.6 335.208 301.319 333.994 301.2C332.76 301.057 331.501 301.011 330.285 300.97C329.693 300.949 329.134 300.93 328.583 300.9H328.367C324.419 300.657 320.41 300.533 316.455 300.525H315.993C309.101 300.525 301.722 300.73 292.075 301.187C292.031 301.185 291.99 301.168 291.959 301.137C291.928 301.106 291.909 301.065 291.907 301.022C291.898 300.999 291.894 300.974 291.896 300.949C291.897 300.924 291.904 300.9 291.917 300.878C291.929 300.856 291.946 300.838 291.966 300.823C291.986 300.809 292.01 300.799 292.034 300.795C296.199 299.89 300.409 299.206 304.646 298.744C308.768 298.293 313.061 298.028 317.403 297.958C318.449 297.941 319.508 297.933 320.553 297.933C323.468 297.933 326.424 297.998 329.336 298.128L330.795 298.195L331.311 298.217H331.371C333.017 298.247 334.659 298.39 336.285 298.647C337.899 298.894 339.436 299.502 340.781 300.427C340.973 300.553 341.136 300.719 341.256 300.915C341.377 301.111 341.453 301.331 341.478 301.559C344.923 294.688 348.175 287.582 351.323 280.714L351.463 280.408L352.32 278.541C353.241 276.528 354.168 274.488 355.062 272.494C356.829 268.582 358.655 264.534 360.538 260.605L361.457 258.687C362.835 255.817 364.026 253.429 365.35 251.094C360.603 250.459 355.443 249.949 349.57 249.535C345.817 249.265 335.494 248.752 329.969 248.752C328.904 248.72 327.839 248.766 326.781 248.889C325.736 249.13 324.823 249.759 324.225 250.648C323.584 251.565 323.036 252.542 322.588 253.567C322.399 253.964 322.218 254.342 322.047 254.691C319.54 259.481 317.184 264.445 314.918 269.244L314.712 269.676C314.15 270.862 313.591 272.073 313.051 273.243L313.034 273.275L312.543 274.337C312.497 274.461 312.441 274.581 312.375 274.696C310.73 278.244 309.287 281.181 307.599 284.059C309.274 283.745 310.924 283.486 312.502 283.289C312.596 281.846 312.985 280.437 313.648 279.152C313.769 278.882 313.883 278.611 313.977 278.368L314.021 278.257C314.126 277.987 314.231 277.695 314.342 277.387C314.72 275.688 315.675 274.172 317.044 273.097C317.167 273.032 317.304 272.997 317.444 272.997C317.645 272.997 317.839 273.076 317.984 273.216C318.142 273.365 318.239 273.568 318.254 273.786C318.097 275.355 317.478 276.842 316.474 278.057V278.057C316.204 278.49 315.933 278.901 315.712 279.279C315.171 280.249 314.631 281.208 314.161 282.127C314.096 282.248 314.037 282.37 313.977 282.489C313.858 282.724 313.748 282.945 313.621 283.153C314.61 283.045 315.417 282.972 316.166 282.921L316.706 282.883C317.465 282.832 318.465 282.775 319.467 282.775C320.602 282.759 321.737 282.849 322.855 283.045C323.973 283.245 325.051 283.621 326.051 284.159C327.334 284.838 328.329 285.956 328.856 287.309C329.103 287.962 329.212 288.66 329.177 289.357C329.136 290.099 328.936 290.823 328.591 291.481C327.748 293.076 326.306 294.272 324.582 294.804C322.868 295.333 321.094 295.641 319.302 295.72C315.085 296.061 310.808 296.674 306.669 297.266L306.207 297.331C303.721 297.741 301.264 298.312 298.851 299.038C296.959 299.563 295.02 300.106 293.066 300.481H292.985C292.899 300.48 292.816 300.452 292.748 300.4C292.68 300.348 292.63 300.275 292.607 300.192C292.584 300.115 292.588 300.032 292.619 299.958C292.65 299.883 292.706 299.822 292.777 299.784C296.095 297.978 299.626 296.593 303.287 295.661L304.413 295.318L304.729 295.221C305.17 295.085 305.613 294.95 306.042 294.807C307.695 294.239 309.385 293.787 311.1 293.456C313.215 293.099 315.371 292.808 317.506 292.586L317.714 292.567C317.984 292.546 318.287 292.527 318.613 292.505C319.829 292.456 321.039 292.323 322.236 292.108C323.377 291.972 324.443 291.473 325.279 290.684C325.486 290.447 325.642 290.17 325.738 289.87C325.833 289.57 325.866 289.254 325.835 288.941C325.762 287.936 325.008 287.185 323.595 286.715C322.491 286.385 321.346 286.212 320.194 286.201L319.519 286.204ZM330.825 311.133C332.187 311.065 333.55 311.248 334.845 311.673C335.199 311.811 335.53 312.002 335.826 312.24C337.417 309.409 338.984 306.472 340.619 303.264C339.539 304.353 338.253 305.216 336.836 305.804C335.43 306.403 333.986 306.909 332.514 307.32C329.155 308.264 325.732 308.958 322.272 309.398L319.551 309.776C317.184 310.103 314.737 310.441 312.348 310.835L314.78 310.862C316.425 310.881 318.124 310.898 319.797 310.93C323.077 310.989 325.797 311.052 328.361 311.127C328.575 311.127 328.81 311.127 329.08 311.127H329.942H329.958L330.825 311.133ZM327.132 416.875C326.423 416.879 325.738 416.621 325.208 416.151C324.925 415.895 324.698 415.583 324.542 415.234C324.386 414.886 324.303 414.509 324.301 414.127C324.293 412.541 324.664 410.976 325.381 409.561C326.059 408.122 327.064 406.862 328.315 405.881C328.513 405.728 328.755 405.644 329.004 405.643C329.329 405.675 329.638 405.797 329.897 405.994C330.157 406.192 330.356 406.457 330.474 406.762C330.991 408.202 331.151 409.747 330.939 411.263C330.792 412.777 330.311 414.24 329.531 415.546C329.277 415.953 328.923 416.288 328.503 416.521C328.084 416.753 327.612 416.875 327.132 416.875V416.875ZM341.537 416.543C341.313 416.539 341.096 416.463 340.92 416.326C340.743 416.188 340.615 415.997 340.557 415.781C339.767 413.141 339.268 410.423 339.068 407.675V407.675C339.006 407.121 338.944 406.545 338.876 405.983C338.552 403.254 338.336 400.463 338.128 397.767L338.049 396.756L337.977 395.832C337.436 389.012 337.004 382.171 336.693 375.499C336.383 368.828 336.191 362.011 336.115 355.14C336.083 352.168 336.115 349.05 336.253 345.878L336.291 344.953C336.323 344.224 336.342 343.473 336.361 342.749C336.345 340.253 336.572 337.762 337.039 335.31C337.057 335.237 337.1 335.172 337.161 335.126C337.221 335.081 337.296 335.058 337.371 335.061C337.447 335.058 337.522 335.081 337.583 335.127C337.644 335.172 337.687 335.237 337.706 335.31C338.174 337.638 338.431 340.004 338.476 342.378C338.511 343.111 338.549 343.87 338.598 344.605L338.622 344.945C338.892 348.59 339.087 351.922 339.227 355.132C339.498 361.555 339.843 368.101 340.257 375.173C340.449 378.461 340.659 381.801 340.881 385.102C341.579 384.716 342.301 384.373 343.042 384.076C344.033 383.711 345.086 383.544 346.141 383.587H346.411C346.751 383.589 347.087 383.664 347.395 383.807C347.704 383.949 347.979 384.156 348.201 384.413C348.424 384.669 348.589 384.971 348.686 385.297C348.783 385.622 348.81 385.965 348.764 386.302C348.732 386.6 348.641 386.889 348.496 387.151C348.35 387.413 348.154 387.643 347.919 387.829C347.45 388.173 346.879 388.352 346.298 388.337C346.121 388.337 345.945 388.323 345.771 388.296C345.185 388.204 344.59 388.093 344.015 387.983C343.042 387.799 342.037 387.61 341.043 387.513C341.237 390.347 341.418 392.857 341.583 395.186C341.697 396.678 341.826 398.188 341.951 399.65C342.11 401.514 342.275 403.433 342.407 405.34C342.429 405.635 342.451 405.951 342.478 406.31C343.377 405.882 344.321 405.553 345.293 405.33L345.563 405.257L345.857 405.173L346.255 405.057C347.092 404.765 347.966 404.592 348.851 404.543C349.549 404.528 350.233 404.741 350.799 405.151C351.04 405.314 351.245 405.526 351.4 405.773C351.555 406.02 351.657 406.297 351.698 406.586C351.725 406.863 351.692 407.142 351.603 407.405C351.514 407.668 351.369 407.909 351.18 408.113C350.772 408.542 350.272 408.874 349.717 409.082C349.163 409.29 348.568 409.37 347.978 409.315C347.578 409.315 347.168 409.293 346.771 409.269L346.203 409.239L345.258 409.226C344.391 409.217 343.528 409.109 342.686 408.904C342.886 411.099 342.874 413.308 342.65 415.5C342.625 415.78 342.498 416.041 342.293 416.234C342.087 416.426 341.819 416.536 341.537 416.543V416.543ZM201.987 413.3C201.417 413.295 200.855 413.168 200.338 412.928C199.05 412.289 197.938 411.346 197.096 410.18L196.84 409.853L196.813 409.818C196.39 409.353 196.062 408.81 195.846 408.221C195.732 407.65 195.72 407.064 195.81 406.489V406.467V406.381C195.835 406.159 195.921 405.948 196.059 405.773C196.125 405.682 196.21 405.608 196.309 405.555C196.408 405.503 196.517 405.474 196.629 405.47H196.715C196.934 405.497 197.156 405.508 197.375 405.516C197.635 405.522 197.895 405.543 198.153 405.581C198.542 405.665 198.917 405.808 199.263 406.005C199.452 406.102 199.647 406.2 199.849 406.275C200.434 406.49 201.03 406.671 201.635 406.816C202.011 406.916 202.4 407.021 202.773 407.14C203.211 407.276 203.616 407.502 203.963 407.803C204.309 408.104 204.589 408.473 204.785 408.888C204.966 409.28 205.062 409.707 205.068 410.139C205.073 410.571 204.987 410.999 204.815 411.395C204.582 411.979 204.174 412.476 203.645 412.817C203.15 413.133 202.574 413.301 201.987 413.3V413.3ZM293.86 405.802C292.156 405.618 290.537 404.964 289.184 403.911V403.911C288.854 403.703 288.541 403.503 288.225 403.317L288.119 403.254L287.355 402.814C286.508 402.352 285.691 401.839 284.907 401.277C284.121 400.707 283.447 399.997 282.919 399.182C282.832 399.024 282.785 398.848 282.781 398.668C282.777 398.488 282.816 398.31 282.894 398.148C282.949 398.009 283.039 397.886 283.155 397.791C283.271 397.697 283.409 397.633 283.556 397.607C283.904 397.558 284.256 397.534 284.607 397.534C286.232 397.62 287.829 397.986 289.33 398.615H289.354L289.811 398.774L289.981 398.834C290.373 398.969 290.791 399.104 291.24 399.228C292.236 399.374 293.194 399.715 294.057 400.232C294.921 400.749 295.674 401.432 296.273 402.241C296.447 402.585 296.543 402.964 296.552 403.349C296.562 403.735 296.486 404.118 296.33 404.47C296.196 404.768 295.995 405.031 295.744 405.24C295.492 405.448 295.197 405.596 294.879 405.673C294.546 405.758 294.204 405.801 293.86 405.802V405.802ZM253.684 393.516C253.033 393.494 252.4 393.298 251.85 392.95C251.3 392.602 250.852 392.114 250.552 391.536C250.271 391.027 250.12 390.458 250.112 389.877C250.107 389.27 250.283 388.676 250.617 388.169C251.285 387.195 252.185 386.401 253.235 385.859C254.301 385.302 255.408 384.825 256.545 384.432V384.432L257.325 384.138C259.316 383.323 261.243 382.364 263.094 381.268V381.268L263.839 380.852C264.004 380.758 264.19 380.707 264.38 380.704C264.609 380.71 264.833 380.783 265.021 380.915C265.21 381.046 265.356 381.23 265.441 381.444C265.526 381.642 265.548 381.862 265.505 382.074C265.462 382.285 265.354 382.478 265.198 382.627L263.847 383.978C262.564 385.227 261.369 386.564 260.273 387.98L260.003 388.334L259.733 388.696L259.719 388.715C259.041 389.694 258.291 390.621 257.477 391.49C256.685 392.346 255.693 392.992 254.589 393.368C254.296 393.461 253.991 393.511 253.684 393.516ZM165.125 383.746C164.204 383.744 163.318 383.39 162.65 382.757C162.128 382.24 161.803 381.556 161.731 380.825C161.67 380.097 161.808 379.366 162.128 378.709C162.841 377.499 163.803 376.453 164.949 375.64C165.378 375.281 165.786 374.943 166.159 374.592L166.278 374.475C166.8 373.967 167.343 373.511 167.867 373.068C168.846 372.301 169.736 371.426 170.52 370.46C170.633 370.317 170.779 370.203 170.944 370.125C171.11 370.048 171.291 370.01 171.474 370.014C171.647 370.008 171.82 370.043 171.977 370.115C172.135 370.188 172.274 370.297 172.381 370.433C172.461 370.557 172.509 370.698 172.52 370.845C172.532 370.992 172.506 371.139 172.446 371.274C172.084 372.257 171.782 373.308 171.46 374.421C171.02 376.108 170.45 377.758 169.758 379.358C169.098 380.913 168.042 382.268 166.694 383.287C166.232 383.6 165.683 383.76 165.125 383.746ZM320.402 383.476C319.845 383.476 319.302 383.299 318.851 382.971C318.415 382.652 318.074 382.22 317.865 381.722C317.651 381.228 317.578 380.683 317.654 380.15C317.742 379.577 318.007 379.046 318.411 378.631C319.893 377.306 321.624 376.29 323.504 375.64H323.52C323.825 375.51 324.138 375.37 324.441 375.246L324.919 375.032C326.065 374.531 327.291 374.236 328.539 374.159C328.819 374.127 329.102 374.158 329.368 374.252C329.633 374.346 329.874 374.499 330.071 374.7C330.113 374.742 330.15 374.789 330.179 374.84C330.297 375.04 330.359 375.268 330.359 375.499C330.359 375.731 330.297 375.959 330.179 376.159C329.201 377.673 327.958 378.999 326.511 380.074L326.34 380.198C326.03 380.428 325.716 380.668 325.414 380.901C324.172 381.992 322.728 382.829 321.164 383.365C320.916 383.435 320.66 383.473 320.402 383.476ZM222.365 359.839C221.887 359.832 221.416 359.712 220.993 359.487C219.448 358.719 218.036 357.708 216.811 356.494C215.598 355.265 214.566 353.869 213.747 352.349C213.663 352.199 213.621 352.029 213.625 351.857C213.629 351.685 213.678 351.517 213.769 351.371C213.852 351.222 213.972 351.097 214.118 351.008C214.264 350.92 214.43 350.87 214.601 350.865C214.773 350.867 214.942 350.916 215.087 351.009C217.606 352.494 220.308 353.644 223.125 354.429C223.702 354.608 224.212 354.957 224.589 355.429C224.98 355.894 225.182 356.489 225.156 357.096V357.28C225.157 357.712 225.03 358.134 224.792 358.493C224.495 358.894 224.12 359.23 223.689 359.482C223.287 359.716 222.83 359.839 222.365 359.839ZM293.706 358.68C292.653 358.606 291.646 358.215 290.818 357.558C289.959 356.932 289.158 356.231 288.425 355.462L288.357 355.394C287.583 354.62 286.903 353.758 286.331 352.824C285.765 351.899 285.377 350.876 285.185 349.809C285.171 349.737 285.172 349.663 285.189 349.592C285.207 349.521 285.239 349.455 285.285 349.398C285.328 349.348 285.382 349.309 285.442 349.282C285.503 349.255 285.568 349.243 285.634 349.244C285.67 349.241 285.706 349.241 285.742 349.244C286.769 349.449 287.767 349.781 288.714 350.23C289.671 350.682 290.594 351.202 291.478 351.784C291.977 352.106 292.475 352.451 292.955 352.784C293.393 353.086 293.844 353.4 294.306 353.697C294.807 353.99 295.239 354.387 295.573 354.862C295.871 355.363 296.048 355.926 296.092 356.507C296.111 356.737 296.083 356.969 296.008 357.187C295.934 357.406 295.815 357.607 295.66 357.777C295.364 358.128 294.978 358.392 294.544 358.542C294.275 358.632 293.993 358.679 293.709 358.682L293.706 358.68ZM355.521 356.396C354.619 356.35 353.749 356.043 353.017 355.513C352.277 355.015 351.604 354.426 351.012 353.759L350.915 353.648C350.758 353.467 350.599 353.286 350.429 353.108C349.707 352.362 349.072 351.536 348.537 350.647C348.115 349.815 347.753 348.953 347.457 348.069V348.069C347.376 347.845 347.292 347.61 347.208 347.385C347.134 347.191 347.108 346.982 347.135 346.776C347.161 346.57 347.238 346.373 347.36 346.204C347.514 345.99 347.717 345.814 347.951 345.691C348.186 345.568 348.446 345.502 348.71 345.497C348.955 345.494 349.196 345.559 349.407 345.683C349.767 345.894 350.14 346.094 350.502 346.288C351.169 346.628 351.814 347.01 352.433 347.431C352.995 347.834 353.536 348.29 354.054 348.734C354.324 348.971 354.624 349.22 354.919 349.455L355.33 349.779C356 350.328 356.595 350.964 357.096 351.671C357.648 352.368 357.976 353.216 358.039 354.102C358.04 354.433 357.964 354.76 357.816 355.056C357.669 355.352 357.453 355.609 357.188 355.807C356.717 356.189 356.13 356.398 355.524 356.399L355.521 356.396ZM322.253 341.027H322.196C321.824 341.044 321.454 340.978 321.11 340.836C320.767 340.693 320.459 340.478 320.207 340.203C319.858 339.85 319.607 339.411 319.48 338.93C319.353 338.449 319.354 337.944 319.483 337.464C319.948 336.162 320.601 334.934 321.421 333.821C322.227 332.705 323.261 331.772 324.455 331.084C324.627 330.99 324.82 330.942 325.016 330.944C325.265 330.932 325.509 331.006 325.709 331.154C325.909 331.302 326.052 331.514 326.113 331.754C326.143 331.903 326.178 332.054 326.213 332.203C326.325 332.618 326.392 333.043 326.411 333.473C326.388 333.968 326.309 334.459 326.175 334.937C326.127 335.143 326.081 335.34 326.043 335.532C325.808 336.968 325.326 338.352 324.617 339.622C324.375 340.039 324.031 340.387 323.617 340.633C323.204 340.879 322.734 341.014 322.253 341.027V341.027ZM204.145 332.038C202.046 331.998 199.996 331.403 198.201 330.314C197.913 330.138 197.703 329.857 197.618 329.53C197.532 329.203 197.577 328.855 197.742 328.56C198.099 327.946 198.535 327.381 199.039 326.88C199.57 326.344 200.16 325.869 200.798 325.464C202.027 324.636 203.464 324.168 204.945 324.113C205.08 324.113 205.215 324.113 205.347 324.129C206.328 324.184 207.256 324.593 207.957 325.28C208.575 325.904 208.967 326.716 209.073 327.588C209.184 328.431 209.009 329.287 208.576 330.02C208.07 330.832 207.287 331.434 206.371 331.714C205.651 331.94 204.9 332.05 204.145 332.038V332.038ZM165.252 328.625C165.002 328.625 164.754 328.593 164.514 328.528C162.291 327.765 160.203 326.653 158.33 325.234L158.3 325.215L157.908 324.945L157.541 324.702L157.395 324.605C156.544 324.09 155.752 323.482 155.036 322.792C154.446 322.13 153.91 321.422 153.434 320.673L153.105 320.19C153.048 320.112 153.014 320.02 153.008 319.925C153.002 319.829 153.023 319.733 153.07 319.649C153.128 319.543 153.214 319.454 153.317 319.391C153.421 319.328 153.54 319.293 153.661 319.29C153.703 319.285 153.744 319.285 153.785 319.29C154.191 319.379 154.612 319.449 155.02 319.517C155.686 319.613 156.345 319.752 156.992 319.933C157.587 320.127 158.172 320.351 158.743 320.606C159.189 320.795 159.648 320.989 160.094 321.146C160.996 321.462 161.937 321.716 162.847 321.957C164.168 322.28 165.464 322.7 166.724 323.213C167.179 323.443 167.55 323.809 167.786 324.262C168.047 324.698 168.176 325.201 168.156 325.71L168.137 325.921C168.112 326.361 167.983 326.788 167.761 327.169C167.501 327.605 167.134 327.968 166.695 328.223C166.256 328.477 165.759 328.616 165.252 328.625V328.625ZM239.183 319.001C238.413 318.934 237.69 318.601 237.138 318.058C236.57 317.567 236.066 317.007 235.636 316.391C234.576 314.835 233.796 313.106 233.332 311.281C233.291 311.144 233.283 310.999 233.308 310.859C233.334 310.718 233.392 310.585 233.478 310.471C233.574 310.347 233.697 310.247 233.837 310.177C233.977 310.108 234.131 310.07 234.288 310.068C234.538 310.068 234.778 310.165 234.958 310.338C235.544 310.879 236.152 311.419 236.738 311.946C237.549 312.67 238.4 313.418 239.197 314.199L239.289 314.291C239.875 314.861 240.354 315.531 240.705 316.269C240.902 316.615 240.983 317.016 240.934 317.412C240.885 317.808 240.71 318.178 240.434 318.466C240.272 318.634 240.078 318.768 239.863 318.859C239.648 318.95 239.417 318.996 239.183 318.995V319.001ZM207.236 291.246C206.471 291.232 205.74 290.93 205.188 290.4C204.632 289.886 204.244 289.215 204.075 288.476C203.934 287.898 203.981 287.289 204.21 286.739C204.483 286.132 204.974 285.65 205.585 285.388C207.777 284.334 210.033 283.419 212.339 282.648C212.731 282.524 213.118 282.391 213.493 282.264C214.961 281.669 216.518 281.323 218.099 281.24C218.35 281.24 218.601 281.253 218.851 281.278C219.005 281.292 219.154 281.343 219.284 281.428C219.414 281.513 219.521 281.629 219.596 281.765C219.657 281.884 219.686 282.016 219.681 282.149C219.676 282.283 219.636 282.413 219.566 282.527C218.575 284.049 217.255 285.331 215.703 286.277V286.277C215.46 286.45 215.211 286.631 214.965 286.817L214.811 286.931C212.882 288.353 210.865 289.651 208.77 290.816C208.305 291.091 207.776 291.239 207.236 291.246V291.246ZM261.54 283.216C261.254 283.213 260.972 283.159 260.705 283.056C257.677 281.927 254.424 280.724 251.141 279.592C250.907 279.505 250.711 279.337 250.589 279.119C250.467 278.901 250.426 278.646 250.474 278.401C250.498 278.193 250.598 278.003 250.756 277.866C250.913 277.729 251.116 277.657 251.325 277.663H251.401C254.829 277.887 258.217 278.039 261.367 278.166C261.712 278.163 262.054 278.234 262.369 278.374C262.684 278.514 262.966 278.719 263.196 278.976C263.571 279.446 263.763 280.035 263.737 280.635C263.778 281.265 263.573 281.886 263.166 282.368C262.758 282.849 262.179 283.153 261.551 283.216H261.54ZM173.519 275.258H173.405C171.015 275.05 168.72 274.228 166.74 272.872C165.89 272.371 165.114 271.754 164.433 271.04C163.759 270.32 163.136 269.554 162.569 268.746C162.495 268.65 162.449 268.536 162.435 268.415C162.422 268.295 162.442 268.173 162.493 268.063C162.567 267.91 162.678 267.778 162.817 267.679C162.955 267.581 163.116 267.518 163.285 267.498C163.714 267.455 164.152 267.387 164.573 267.322C165.114 267.239 165.678 267.155 166.227 267.117C166.338 267.117 166.454 267.117 166.575 267.117C167.07 267.128 167.564 267.171 168.053 267.247C168.304 267.279 168.564 267.314 168.818 267.339L169.736 267.428C171.609 267.537 173.454 267.939 175.202 268.619C175.887 268.896 176.435 269.431 176.728 270.108C176.991 270.759 177.048 271.475 176.893 272.159C176.728 272.977 176.326 273.729 175.737 274.321C175.447 274.616 175.102 274.85 174.722 275.011C174.341 275.172 173.932 275.256 173.519 275.258V275.258ZM327.075 266.728C326.714 266.727 326.359 266.634 326.043 266.458C325.69 266.26 325.387 265.982 325.16 265.647C324.821 265.17 324.589 264.625 324.479 264.05C324.383 263.505 324.383 262.947 324.479 262.402C324.702 261.279 325.115 260.203 325.7 259.219L326.024 258.638C326.598 257.548 327.303 256.532 328.123 255.612L328.137 255.523C328.199 254.834 328.516 254.194 329.026 253.726C329.466 253.351 330.026 253.147 330.604 253.151C330.962 253.146 331.316 253.22 331.643 253.366C331.969 253.513 332.26 253.729 332.495 253.999C332.74 254.301 332.915 254.654 333.006 255.032C333.096 255.411 333.101 255.804 333.019 256.185C332.745 257.892 332.267 259.56 331.595 261.154C330.923 262.747 330.066 264.256 329.042 265.65C328.823 265.973 328.53 266.239 328.189 266.426C327.847 266.613 327.465 266.717 327.075 266.728V266.728ZM197.156 246.193C196.533 246.2 195.923 246.018 195.405 245.671C195.144 245.493 194.921 245.263 194.751 244.996C194.582 244.729 194.468 244.43 194.416 244.118L194.368 243.848L194.324 243.618C194.065 242.648 194.028 241.632 194.214 240.646C194.443 239.947 194.752 239.277 195.135 238.649V238.649L195.308 238.338L195.392 238.184C195.81 237.416 196.305 236.692 196.869 236.023C197.43 235.35 198.037 234.718 198.688 234.131C199.005 233.853 199.414 233.7 199.836 233.702C200.164 233.696 200.486 233.79 200.76 233.972C201.04 234.175 201.233 234.476 201.3 234.815C201.735 236.561 201.856 238.371 201.66 240.159C201.63 240.37 201.603 240.589 201.579 240.8C201.524 241.557 201.366 242.304 201.108 243.018C200.673 243.883 200.07 244.653 199.336 245.285L199.236 245.382C198.672 245.908 197.926 246.193 197.156 246.179V246.193ZM320.162 242.821C319.189 242.711 318.289 242.254 317.627 241.532L317.503 241.427C316.687 240.753 315.77 240.212 314.785 239.824C314.534 239.724 314.326 239.539 314.196 239.302C314.066 239.065 314.022 238.79 314.072 238.525C314.113 238.296 314.236 238.09 314.419 237.947C314.602 237.804 314.832 237.734 315.063 237.749H315.366C316.772 237.757 318.168 237.986 319.502 238.427C321.099 239.024 321.912 239.962 321.934 241.216C321.931 241.562 321.817 241.897 321.607 242.172C321.405 242.454 321.111 242.656 320.775 242.742C320.574 242.788 320.368 242.81 320.162 242.807V242.821Z" fill="black"/>
<path d="M289.054 222.253C286.738 222.24 284.428 222.027 282.149 221.616C277.257 220.713 272.498 219.199 267.984 217.109C262.833 215.527 257.801 213.579 252.927 211.28C250.423 210.11 247.77 208.849 245.27 207.387C242.773 205.984 240.466 204.267 238.403 202.28C237.451 201.33 236.592 200.292 235.839 199.178C235.091 198.069 234.43 196.904 233.861 195.693C232.739 193.251 231.865 190.703 231.251 188.086C231.057 187.306 230.873 186.503 230.711 185.698C230.535 185.246 230.397 184.781 230.298 184.306C229.949 182.685 229.628 181.051 229.344 179.418C228.779 176.206 228.317 172.934 227.974 169.667C227.631 166.4 227.396 163.066 227.299 159.729C227.283 159.162 227.25 158.578 227.215 157.962C227.147 156.8 227.08 155.598 227.123 154.422C227.138 153.282 227.337 152.151 227.712 151.075C227.941 150.377 228.372 149.764 228.952 149.314C229.532 148.863 230.233 148.597 230.965 148.548H231.054C231.872 148.563 232.658 148.871 233.269 149.416C235.491 152.802 237.407 156.378 238.997 160.102C240.803 164.084 242.844 167.956 245.108 171.696C247.939 175.582 251.154 179.172 254.705 182.412L254.886 182.526C259.728 181.36 264.129 178.818 267.559 175.206C268.581 174.125 269.556 172.969 270.502 171.85C272.366 169.46 274.504 167.296 276.872 165.403C277.769 164.737 278.74 164.176 279.766 163.731C280.791 163.286 281.871 162.981 282.978 162.826C283.576 162.747 284.179 162.709 284.783 162.712C285.834 162.712 286.901 162.812 287.933 162.909C288.965 163.007 290.032 163.107 291.086 163.107C291.429 163.107 291.75 163.107 292.067 163.074C292.583 163.042 293.099 162.993 293.598 162.95C294.558 162.863 295.46 162.782 296.376 162.782C297.733 162.748 299.081 163.011 300.326 163.552C302.49 164.696 304.415 166.242 305.999 168.108L306.145 168.259C307.333 169.499 308.627 170.634 310.011 171.65C311.374 172.645 312.83 173.506 314.358 174.22H314.396C314.61 174.214 314.822 174.257 315.016 174.345C315.211 174.433 315.383 174.564 315.52 174.728L316.033 174.928C316.779 174.197 317.593 173.54 318.465 172.966C318.803 172.723 319.097 172.515 319.243 172.391C319.574 172.123 319.988 171.98 320.413 171.985C320.639 171.979 320.864 172.019 321.075 172.102C321.285 172.186 321.476 172.312 321.637 172.472C321.766 172.613 321.863 172.78 321.924 172.961C321.984 173.143 322.006 173.335 321.988 173.525L321.366 183.174C321.304 184.12 320.542 190.148 320.27 192.234C320.051 193.923 319.762 195.549 319.413 197.073C319.057 198.659 318.606 200.222 318.062 201.753C317.516 203.277 316.86 204.759 316.098 206.187C315.328 207.627 314.438 208.999 313.437 210.289C311.252 213.083 308.487 215.37 305.332 216.992C303.16 218.578 300.773 219.845 298.243 220.756C296.774 221.281 295.259 221.665 293.717 221.905C292.174 222.142 290.615 222.258 289.054 222.253ZM295.355 178.827C292.153 178.89 288.977 179.402 285.917 180.348C283.24 181.118 280.59 182.11 278.026 183.072C275.273 184.104 272.425 185.171 269.54 185.96C267.612 186.51 265.651 186.935 263.669 187.233C263.977 187.597 264.29 188.003 264.62 188.47C267.46 190.09 270.417 191.494 273.468 192.669C273.906 192.831 274.333 192.991 274.768 193.142C275.43 192.958 276.118 192.731 276.87 192.45C278.177 191.831 279.46 191.056 280.701 190.308C282.206 189.342 283.785 188.497 285.423 187.778C286.692 187.267 288.009 186.883 289.354 186.63C290.69 186.38 292.047 186.254 293.407 186.255C297.033 186.262 300.608 187.113 303.849 188.74L304.53 188.994C305.394 189.319 306.288 189.654 307.18 189.945C307.898 190.186 308.627 190.39 309.366 190.556C310.961 188.767 312.225 186.709 313.099 184.477C311.651 184.344 310.236 183.96 308.92 183.342C307.882 182.893 306.869 182.342 305.891 181.81C304.608 181.067 303.27 180.426 301.887 179.891C300.834 179.522 299.749 179.25 298.645 179.081C297.556 178.911 296.455 178.826 295.352 178.827H295.355Z" fill="black"/>
<path d="M286.444 186.979C284.676 186.975 282.926 186.626 281.292 185.952C280.09 185.462 278.959 184.813 277.928 184.023C276.895 183.233 275.974 182.305 275.191 181.267C274.951 180.961 274.776 180.609 274.678 180.233C274.58 179.857 274.561 179.465 274.621 179.081C274.764 178.29 275.204 177.583 275.851 177.106C276.368 176.708 277 176.488 277.653 176.479C277.787 176.478 277.922 176.488 278.055 176.508C278.434 176.574 278.794 176.717 279.115 176.928C279.435 177.14 279.708 177.416 279.917 177.738L280.028 177.889C280.943 179.142 282.148 180.154 283.54 180.84C284.628 181.371 285.822 181.648 287.033 181.65C287.322 181.65 287.611 181.634 287.898 181.602C289.265 181.448 290.579 180.986 291.742 180.251C292.931 179.481 294.024 178.574 295 177.549C295.233 177.311 295.481 177.054 295.811 176.714C295.968 176.473 296.202 176.293 296.475 176.203C296.615 176.157 296.761 176.134 296.908 176.136C297.072 176.135 297.236 176.163 297.391 176.217C297.683 176.316 297.936 176.505 298.113 176.757C298.288 177.016 298.369 177.329 298.34 177.641C298.237 178.742 297.909 179.81 297.378 180.78C296.837 181.765 296.142 182.656 295.319 183.42C294.389 184.287 293.339 185.015 292.201 185.582C291.109 186.138 289.944 186.538 288.741 186.768C287.983 186.907 287.214 186.978 286.444 186.979V186.979ZM290.067 166.476C288.545 166.451 287.041 166.148 285.628 165.582C283.764 164.834 282.008 163.839 280.408 162.623C280.037 162.335 279.779 161.926 279.679 161.466C279.592 161.032 279.628 160.582 279.782 160.167C279.957 159.674 280.26 159.237 280.66 158.9C281.038 158.563 281.523 158.372 282.029 158.359C282.406 158.362 282.774 158.475 283.089 158.683L283.442 158.954C284.477 159.786 285.57 160.545 286.712 161.223C287.887 161.971 289.237 162.401 290.629 162.472C291.197 162.476 291.76 162.365 292.285 162.147C292.867 161.896 293.391 161.529 293.825 161.067C294.237 160.534 294.53 159.92 294.685 159.264C294.84 158.609 294.852 157.928 294.722 157.268C294.407 155.991 293.747 154.825 292.815 153.898C291.96 152.997 290.989 152.215 289.927 151.572C289.782 151.449 289.681 151.283 289.637 151.098C289.594 150.914 289.61 150.72 289.683 150.545C289.766 150.292 289.921 150.07 290.129 149.905C290.375 149.721 290.676 149.626 290.983 149.634C291.085 149.635 291.187 149.644 291.288 149.661C292.491 149.854 293.647 150.271 294.695 150.891C295.594 151.431 296.373 152.148 296.986 152.998C298.122 154.631 298.64 156.615 298.448 158.594C298.362 159.608 298.109 160.6 297.699 161.531C297.291 162.466 296.719 163.321 296.011 164.055C295.238 164.843 294.312 165.465 293.29 165.881C292.267 166.298 291.171 166.5 290.067 166.476V166.476ZM261.186 146.454C260.467 146.436 259.779 146.158 259.25 145.672C258.72 145.186 258.385 144.524 258.306 143.809C258.1 141.954 258.138 140.08 258.419 138.235C258.487 137.694 258.557 137.132 258.606 136.53C258.639 136.066 258.769 135.615 258.987 135.204C259.206 134.794 259.507 134.434 259.873 134.147C260.556 133.606 261.401 133.309 262.272 133.304C262.922 133.29 263.559 133.49 264.085 133.874C264.64 134.312 265.001 134.952 265.087 135.654C265.565 138.814 265.017 142.043 263.523 144.868C263.292 145.358 262.931 145.775 262.48 146.073C262.094 146.321 261.645 146.453 261.186 146.454V146.454ZM303.576 145.19C303.2 145.203 302.827 145.134 302.482 144.986C302.137 144.839 301.828 144.616 301.579 144.336C301.069 143.715 300.658 143.018 300.361 142.272C300.035 141.476 299.826 140.638 299.739 139.783C299.608 138.968 299.67 138.134 299.92 137.347C300.17 136.561 300.601 135.844 301.179 135.254C301.249 135.128 301.327 135.007 301.414 134.892C301.693 134.475 302.065 134.128 302.5 133.877C302.936 133.627 303.423 133.481 303.924 133.45C304.182 133.451 304.439 133.489 304.686 133.563C305.232 133.707 305.737 133.974 306.162 134.345C306.588 134.716 306.922 135.179 307.139 135.7C307.624 137.023 307.729 138.455 307.442 139.834C307.219 141.189 306.796 142.503 306.185 143.733C305.945 144.196 305.568 144.574 305.105 144.814C304.633 145.061 304.108 145.19 303.576 145.19V145.19ZM248.391 131.92C248.311 131.917 248.234 131.894 248.166 131.852C248.099 131.81 248.043 131.752 248.004 131.682C247.956 131.608 247.928 131.522 247.923 131.434C247.918 131.345 247.936 131.257 247.975 131.177C248.975 129.289 250.312 127.6 251.919 126.192C253.512 124.763 255.286 123.55 257.195 122.585C259.167 121.554 261.279 120.819 263.463 120.402L264.131 120.283C265.034 120.108 265.95 120.009 266.87 119.988C267.491 119.936 268.115 120.022 268.699 120.239C269.283 120.456 269.812 120.799 270.247 121.245C270.729 121.809 270.972 122.539 270.926 123.279C270.91 123.536 270.842 123.786 270.725 124.015C270.609 124.244 270.446 124.446 270.247 124.609C269.228 125.382 267.959 125.754 266.684 125.652C266.414 125.652 266.114 125.652 265.833 125.638C265.563 125.638 265.257 125.625 264.952 125.625C264.647 125.625 264.412 125.625 264.19 125.643C262.393 125.745 260.614 126.048 258.884 126.546C255.207 127.747 251.747 129.531 248.636 131.831C248.565 131.885 248.48 131.916 248.391 131.92V131.92ZM312.948 129.218L312.678 129.148C311.606 128.855 310.569 128.451 309.581 127.943L308.576 127.448C307.417 126.856 306.217 126.346 304.986 125.922C302.326 125.053 299.587 124.449 296.808 124.12C296.216 124.062 295.65 123.847 295.168 123.498C294.708 123.155 294.383 122.662 294.249 122.104C294.139 121.757 294.106 121.39 294.152 121.028C294.199 120.667 294.324 120.32 294.519 120.013C294.817 119.51 295.272 119.119 295.814 118.899C296.164 118.755 296.54 118.681 296.919 118.68C297.133 118.681 297.346 118.703 297.556 118.745L298.069 118.851C301.123 119.427 304.091 120.389 306.901 121.715C308.302 122.392 309.608 123.25 310.786 124.265C311.928 125.252 312.861 126.456 313.531 127.808C313.629 128.548 313.531 128.732 313.439 128.856L313.41 128.891L313.385 128.926C313.282 129.076 313.126 129.181 312.948 129.218V129.218Z" fill="black"/>
</svg>
